<mxfile host="Electron" modified="2024-03-30T11:19:35.545Z" agent="Mozilla/5.0 (Windows NT 10.0; Win64; x64) AppleWebKit/537.36 (KHTML, like Gecko) draw.io/22.0.0 Chrome/114.0.5735.289 Electron/25.8.3 Safari/537.36" etag="zj_myBLuwcNf1j369Q8y" version="22.0.0" type="device">
  <diagram name="Page-1" id="DOyr_HSD3TaoNtbldO0s">
    <mxGraphModel dx="2578" dy="1016" grid="1" gridSize="10" guides="1" tooltips="1" connect="1" arrows="1" fold="1" page="1" pageScale="1" pageWidth="850" pageHeight="1100" math="0" shadow="0">
      <root>
        <mxCell id="0" />
        <mxCell id="1" parent="0" />
        <mxCell id="HWAsmWwuGCzAoxy0_08F-218" value="" style="rounded=0;whiteSpace=wrap;html=1;" vertex="1" parent="1">
          <mxGeometry x="-500" y="380" width="1140" height="700" as="geometry" />
        </mxCell>
        <mxCell id="pkxwIuhRlSJscm1fMJWJ-212" value="" style="group" parent="1" vertex="1" connectable="0">
          <mxGeometry x="-760" y="20" width="370" height="300" as="geometry" />
        </mxCell>
        <mxCell id="pkxwIuhRlSJscm1fMJWJ-106" value="" style="rounded=0;whiteSpace=wrap;html=1;strokeWidth=3;" parent="pkxwIuhRlSJscm1fMJWJ-212" vertex="1">
          <mxGeometry width="370" height="300" as="geometry" />
        </mxCell>
        <mxCell id="pkxwIuhRlSJscm1fMJWJ-107" value="&lt;font style=&quot;font-size: 16px;&quot;&gt;Assign Student&lt;/font&gt;" style="rounded=0;whiteSpace=wrap;html=1;" parent="pkxwIuhRlSJscm1fMJWJ-212" vertex="1">
          <mxGeometry x="15.046210720887245" y="30" width="150.46210720887245" height="37.5" as="geometry" />
        </mxCell>
        <mxCell id="pkxwIuhRlSJscm1fMJWJ-108" value="" style="ellipse;whiteSpace=wrap;html=1;aspect=fixed;" parent="pkxwIuhRlSJscm1fMJWJ-212" vertex="1">
          <mxGeometry x="335.80406654343807" y="7.5" width="18.19547134935305" height="18.19547134935305" as="geometry" />
        </mxCell>
        <mxCell id="pkxwIuhRlSJscm1fMJWJ-109" value="" style="endArrow=none;html=1;rounded=0;entryX=1;entryY=0;entryDx=0;entryDy=0;exitX=0;exitY=1;exitDx=0;exitDy=0;" parent="pkxwIuhRlSJscm1fMJWJ-212" source="pkxwIuhRlSJscm1fMJWJ-108" target="pkxwIuhRlSJscm1fMJWJ-108" edge="1">
          <mxGeometry width="50" height="50" relative="1" as="geometry">
            <mxPoint x="151.82994454713491" y="180" as="sourcePoint" />
            <mxPoint x="186.02587800369685" y="142.5" as="targetPoint" />
          </mxGeometry>
        </mxCell>
        <mxCell id="pkxwIuhRlSJscm1fMJWJ-110" value="" style="endArrow=none;html=1;rounded=0;entryX=0;entryY=0;entryDx=0;entryDy=0;exitX=1;exitY=1;exitDx=0;exitDy=0;" parent="pkxwIuhRlSJscm1fMJWJ-212" source="pkxwIuhRlSJscm1fMJWJ-108" target="pkxwIuhRlSJscm1fMJWJ-108" edge="1">
          <mxGeometry width="50" height="50" relative="1" as="geometry">
            <mxPoint x="151.82994454713491" y="180" as="sourcePoint" />
            <mxPoint x="186.02587800369685" y="142.5" as="targetPoint" />
          </mxGeometry>
        </mxCell>
        <mxCell id="pkxwIuhRlSJscm1fMJWJ-113" value="Student email" style="rounded=0;whiteSpace=wrap;html=1;align=left;" parent="pkxwIuhRlSJscm1fMJWJ-212" vertex="1">
          <mxGeometry x="15.046210720887245" y="82.5" width="212.01478743068392" height="15" as="geometry" />
        </mxCell>
        <mxCell id="pkxwIuhRlSJscm1fMJWJ-114" value="Student name" style="rounded=0;whiteSpace=wrap;html=1;align=left;" parent="pkxwIuhRlSJscm1fMJWJ-212" vertex="1">
          <mxGeometry x="15.046210720887245" y="105" width="212.01478743068392" height="15" as="geometry" />
        </mxCell>
        <mxCell id="pkxwIuhRlSJscm1fMJWJ-150" value="Current semester" style="rounded=0;whiteSpace=wrap;html=1;align=left;" parent="pkxwIuhRlSJscm1fMJWJ-212" vertex="1">
          <mxGeometry x="15.046210720887245" y="128.25" width="212.01478743068392" height="15" as="geometry" />
        </mxCell>
        <mxCell id="pkxwIuhRlSJscm1fMJWJ-151" value="Semester courses" style="rounded=0;whiteSpace=wrap;html=1;align=left;" parent="pkxwIuhRlSJscm1fMJWJ-212" vertex="1">
          <mxGeometry x="15.046210720887245" y="150" width="212.01478743068392" height="15" as="geometry" />
        </mxCell>
        <mxCell id="pkxwIuhRlSJscm1fMJWJ-152" value="" style="shape=image;imageAspect=0;aspect=fixed;verticalLabelPosition=bottom;verticalAlign=top;image=data:image/png,iVBORw0KGgoAAAANSUhEUgAABkAAAAZACAMAAAAW0n6VAAAAAXNSR0IArs4c6QAAAARnQU1BAACxjwv8YQUAAAMAUExURQAAAAAAAAAAAAAAAAAAAAAAAAAAAAAAAAAAAAAAAAAAAAAAAAAAAAAAAAAAAAAAAAAAAAAAAAAAAAAAAAAAAAAAAAAAAAAAAAAAAAAAAAAAAAAAAAAAAAAAAAAAAAAAAAAAAAAAAAAAAAAAAAAAAAAAAAAAAAAAAAAAAAAAMwAAZgAAmQAAzAAA/wAzAAAzMwAzZgAzmQAzzAAz/wBmAABmMwBmZgBmmQBmzABm/wCZAACZMwCZZgCZmQCZzACZ/wDMAADMMwDMZgDMmQDMzADM/wD/AAD/MwD/ZgD/mQD/zAD//zMAADMAMzMAZjMAmTMAzDMA/zMzADMzMzMzZjMzmTMzzDMz/zNmADNmMzNmZjNmmTNmzDNm/zOZADOZMzOZZjOZmTOZzDOZ/zPMADPMMzPMZjPMmTPMzDPM/zP/ADP/MzP/ZjP/mTP/zDP//2YAAGYAM2YAZmYAmWYAzGYA/2YzAGYzM2YzZmYzmWYzzGYz/2ZmAGZmM2ZmZmZmmWZmzGZm/2aZAGaZM2aZZmaZmWaZzGaZ/2bMAGbMM2bMZmbMmWbMzGbM/2b/AGb/M2b/Zmb/mWb/zGb//5kAAJkAM5kAZpkAmZkAzJkA/5kzAJkzM5kzZpkzmZkzzJkz/5lmAJlmM5lmZplmmZlmzJlm/5mZAJmZM5mZZpmZmZmZzJmZ/5nMAJnMM5nMZpnMmZnMzJnM/5n/AJn/M5n/Zpn/mZn/zJn//8wAAMwAM8wAZswAmcwAzMwA/8wzAMwzM8wzZswzmcwzzMwz/8xmAMxmM8xmZsxmmcxmzMxm/8yZAMyZM8yZZsyZmcyZzMyZ/8zMAMzMM8zMZszMmczMzMzM/8z/AMz/M8z/Zsz/mcz/zMz///8AAP8AM/8AZv8Amf8AzP8A//8zAP8zM/8zZv8zmf8zzP8z//9mAP9mM/9mZv9mmf9mzP9m//+ZAP+ZM/+ZZv+Zmf+ZzP+Z///MAP/MM//MZv/Mmf/MzP/M////AP//M///Zv//mf//zP///69WTRwAAAAodFJOUzbd9P6TxGuq61HMe7NDm1qD5Lli1KJKc4w5AAAAAAAAAAAAAAAAAAApCyKWAAAACXBIWXMAAA7DAAAOwwHHb6hkAAAnXklEQVR4Xu3da5PTxhaG0QNDQggEAgkk4f//0MOAgIG52a916d57rS9UgS2rqmU/2K2W/vcRAAICAkBEQACICAgAEQEBICIgAEQEBICIgAAQERAAIgICQERAAIgICAARAQEgIiAARAQEgIiAABAREAAiAgJAREAAiAgIABEBASAiIABEBASAiIAAEBEQACICAkBEQACICAgAEQEBICIgAEQEBICIgAAQERAAIgICQERAAIgICAARAQEgIiAARAQEgIiAABAREAAiAgJAREAAiAgIABEBASAiIABEBASAiIAAEBEQACICAkBEQACICAgAEQEBICIgAEQEBICIgAAQERAAIgICQERAAIgICAARAQEgIiAARAQEgIiAABAREAAiAgJAREAAiAgIABEBASAiIABEBASAiIAAEBEQACICAkBEQACICAgAEQEBICIgAEQEBICIgAAQERAAIgICQERAAIgICAARAQEgIiAARAQEgIiAABAREAAiAgJAREAAiAgIABEBASAiIABEBASAiIAAEBEQACICAkBEQACICAgAEQEBICIgAEQEBICIgAAQERAAIgICQERAAIgICAARAQEgIiAARAQEgIiAABAREAAiAgJAREAAiAgIABEBASAiIABEBASAiIAAEBEQACICAkBEQACICAgAEQEBICIgAEQEBICIgAAQERAAIgICQERAAIgICAARAQEgIiAARAQEgIiAABAREAAiAgJAREAAiAgIABEBASAiIABEBASAiIAAEBEQACICAkBEQACICAgAEQEBICIgAEQEBICIgAAQERAAIgICQERAAIgICAARAQEgIiAARAQEgIiAABAREAAiAgJAREAAiAgIABEBASAiIABEBASAiIAAEBEQACICAkBEQACICAgAEQEBICIgAEQEBICIgAAQERAAIgICQERAAIgICAARAQEgIiAARAQEgIiAABAREAAiAgJAREAAiAgIABEBASAiIABEBASAiIAAEBEQACICAkBEQACICAgAEQEBICIgAEQEBICIgAAQERAAIgICQERAAIgICAARAQEgIiAARAQEgIiAABAREAAiAgJAREAAiAgIABEBASAiIABEBASAiIAAEBEQACICAkBEQACICAgAEQEBICIgAEQEBICIgAAQERAAIgICQERAAIgICAARAQEgIiAARAQEgIiAABAREAAiAgJAREAAiAgIABEBASAiIABEBASAiIAAEBEQACICAkBEQACICAgAEQEBICIgAEQEBICIgAAQERAAIgICQERAAIgICAARAQEgIiAARAQEgIiAABAREAAiAgJAREAAiAgIABEBASAiIABEBASAiIAAEBEQACICAkBEQACICAgAEQEBICIgAEQEBICIgAAQERAAIgICQERAAIgICAARAQEgIiAARAQEgIiAABAREAAiAgJAREAAiAgIABEBASAiIABEBASAiIAAEBEQACICAkBEQACICAgAEQEBICIgAEQEBICIgAAQERAAIgICQERAAIgICAARAQEgIiAARAQEgIiAABAREAAiAgJAREAAiAgIABEBASAiIABEBASAiIAAEBEQACICAkBEQACICAgAEQEBICIgAEQEBICIgAAQERAAIgICQERAAIgICAARAQEgIiAARAQEgIiAABAREAAiAgJAREAAiAgIABEBASAiIABEBASAiIAAEBEQACICAkBEQACICAgAEQEBICIgAEQEBICIgAAQERAAIgICQERAAIgICAARAQEgIiAARAQEgIiAABAREAAiAgJAREAAiAgIABEBASAiIABEBASAiIAAEBEQACICAkBEQACICAgAEQEBICIgAEQEBICIgAAQERAAIgICQERAAIgICAARAQEgIiAARAQEgIiAABAREAAiAgJAREAAiAgIABEBASAiIABEBASAiIAAEBEQACICAkBEQACICAgAEQEBICIgAEQEBICIgAAQERAAIgICQERAAIgICAARAQEgIiAARAQEgIiAABAREAAiAgJAREAAiAgIABEBASAiIABEBASAiIAAEBEQACICAkBEQACICAgAEQEBICIgAEQEBICIgAAQERAAIgICQERAAIgICAARAQEgIiAARAQEgIiAABAREAAiAgJAREAAiAgIABEBASAiIABEBASAiIAAEBEQACICAkBEQACICAgAEQEBICIgAEQEBICIgAAQERAAIgICQERAAIgICAARAQEgIiAARAQEgIiAABAREAAiAgJAREAAiAgIABEBASAiIABEBASAiIAAEBEQACICAkBEQACICAgAEQEBICIgAEQEBICIgAAQERAAIgICQERAAIgICAARAQEgIiAARAQEgIiAABAREAAi3QPy35t/nr1+/vzd8/ev//3z1z+WvwW6+/Dy+S9Pfrv64unfv7x/+WH5F75pHJAPf756uxwd3z39/f1fy78DTf366unyifCj357/ujyCz7oG5OUvyxFxl7fv3ywPA5r54/Xt/1je9OTf/5ZH0jMgL/9eDoX7PX3v6yr08/LJ8hHwkLcvl0e31y8gH94tB8FjfvtzeQbQwn+nfjhcXT33NeRat4D89fiXj++ePlueBZR3Rj6uvZKQbgF5cU4+Pnu9PBMo7X/n5ePau+WpjbUKyO/LuJ/jqbMuoL5nyxv+PO1/5m4UkH+XMT/X7/3miaCXFw+feHW/t81Ptmnz4fhHeoR8YioEKnu+vNMTvT8dugTkz2W0M78vWwHqOeXM3fs9WbbSUpOAPLRs8BS/WRUCNb25e9H56Z42XnfcIyAX/Hz1lUUhUFE2e/6jvp8OHQLy4tL/YXzmhF6o55Lpj++eL1trp0FA/lrG+FJtjxEo69Xy7r7Uq2V73dQPyFr96HuMQFWXTo5+98uyxWbKB+TXZXzXYOEpVLJeP7oWpHpAXiyjuw4FgTrW7EfT37iLB+R/q8yff6cgUMW6/ei5pLB4QL7ekHI1CgI1rN2Pq6uGNzOtHZCzL777OAWBCtbvx9XTZdONlA7I+2VcV6UgML8N+tHxqiaVA7LeCbw/UBCY3Sb9aDiRXjkgK0+gf6MgMLeN+nF19WJ5gS4KB2StNaa3KQjMbLN+XP22vEIXdQPyZhnRLSgIzGu7flxdvV9eo4m6AVn9DN6bFARmtWU/rq6WF2mibEAuu4PUoxQE5rRtP5pd0qRsQLaaQf9KQWBGG/ej2Tx61YC8XgZzOwoC89m8H71ugF01IFt/AflEQWA22/fj6qrT/a+LBmTjGZAvFATmskc/Ws2CFA3IpqdgfaMgMJNd+tHqRKyaAdnoIia3KAjMY6d+dLque82A7HWgKAhMY7ePhUbL0WsGZBnHHSgIzGG3fnSaRi8ZkH+WYdyDgsAMduxHo+uZlAzInoeKgsAEdv1Q6PMbVsmALKO4EwWB0e3aj0bnYVUMyItlEPeiIDC2nftx9XJ53fIqBuTZMoi7URAY2d796PORUDEgvy+DuB8FgXHt3o8+kyAVA7KM4Z4UBEa1fz/6TIIIyDoUBMZ0RD+u3iwvXl3BgOx1HZMfKQiM6JB+XP25vHp1BQOyy5V4b1MQGM8x/bh6vbx8dQUD8n4Zwr0pCIzmoH60uaR7wYAcdcgoCAzmsA+DJ8sOVFcwIE+WIdyfgsBIDuvH1dNlD6orGJB9biZ1JwWBcRzXjzbn8RYMyA63Q7+XgsAojuyHgExrGcBjKAiM4dB+CMi0lgE8iILACI7th4BMaxnAoygIHO/gfgjItJYBPIyCwNGO7oeATOvISfTPFASOdXg/BGRaB57Gu1AQONLx/ehyPfeCAdn/diC3KAgc5/h+WIk+r1fLEB5JQeAoA/TDtbDm9XoZwkMpCBxjhH5cvV92prqCAflnGcJjKQgcYYh+XL1c9qa6ggH5sAzhwRQE9jdGP65eLLtTXcGAHL4QZKEgsLdB+tHlLN6SATn+PN4vFAT2NUo/ulzNvWRARjgN6zMFgT2N0o+rV8sOlVcxIGPMol9TENjPMP24+mfZo/IqBmSUSZBPFAT2Mk4/rv5bdqm8kgEZZRLkEwWBfQzUjy4XMikakCGWEi4UBPYwUD+uXi/7VF/JgPyxDOMQFAS2N1I/rj4sO1VfyYCM9BuWgsD2hupHm5N4qwbk2TKQY1AQ2NZQ/bh6tuxVAzUDMtB5WNcUBLY0Vj/aLEP/pGhABjugFAS2M9jbvcul3K8VDciLZShHoSCwlcH6cfVm2a8Oigbk49/LWI5CQWAbo/Xj72W/WqgakDfLYA5DQWALo/Wj1ReQsgEZ7iuIgsAGhutHl7uhf1E2IIPcVuoGBYG1DdePRosIr5UNyDgXdf9GQWBd4/Xj+bJnTdQNyGBrQa4pCKxpvH40WoT+WeGAvFyGdCAKAusZrx9XL5dd66JwQEY8vBQE1jLgG7zTGsLPKgfk49NlVAeiILCOAfvR7Qes4gH5axnWkSgIrGHAfvRaAvJZ6YAMdlXeLxQELjdiP/5d9q2R2gH5+G4Z2ZEoCFxqxH50fGcXD8jHJ8vYjkRB4DIj9qPVNbC+qh6Qj2+X0R2JgsAlRuxHr0uYfFU+IAoCxejHMOoHZKwbpC8UBFIj9uPtsm/dNAiIgkAh+jGQDgFREChDP0bSIiAKAkXox1B6BERBoAT9GEuTgCgIFKAfg+kSEAWB6enHaNoEREFgcvoxnD4BURCYmn6Mp1FAFAQmph8D6hQQBYFp6ceIWgVEQWBS+jGkXgFREJiSfoypWUAUBCakH4PqFhAFgenox6jaBURBYDL6Max+AVEQmIp+jKthQBQEJqIfA+sYEAWBaejHyFoGREFgEvoxtJ4BURCYgn6MrWlAFAQmoB+D6xoQBYHh6cfo2gZEQWBw+jG8vgFREBiafoyvcUAUBAamHxPoHBAFgWHpxwxaB0RBYFD6MYXeAVEQGJJ+zKF5QBQEBqQfk+geEAWB4ejHLNoHREFgMPoxDQFREBiKfsxDQBQERqIfExGQTxQERqEfMxGQawoCY9CPqQjIZwoCI9CPuQjIFwoCx9OPyQjIQkHgaPoxGwH5SkHgWPoxHQH5RkHgSPoxHwH5TkHgOPoxIQG5QUHgKPoxIwG5SUHgGPoxJQH5gYLAEfRjTgLyIwWB/enHpATkJwoCe9OPWQnIzxQE9qUf0xKQWxQE9qQf8xKQ2xQE9qMfExOQOygI7EU/ZiYgd1EQ2Id+TE1A7qQgsAf9mJuA3E1BYHv6MTkBuYeCwNb0Y3YCch8FgW3px/QE5F4KAlvSj/kJyP0UBLajHwUIyAMUBLaiHxUIyEMUBLahHyUIyIMUBLagHzUIyMMUBNanH0UIyCMUBNamH1UIyGMUBNalH2UIyKMUBNakH3UIyOMUBNajH4UIyAkUBNaiH5UIyCkUBNahH6UIyEkUBNagH7UIyGkUBC6nH8UIyIkUBC6lH9UIyKkUBC6jH+UIyMkUBC6hH/UIyOkUBHL6UZCAnEFBIKUfFQnIORQEMvpRkoCcRUEgoR81Cch5FATOpx9FCciZFATOpR9VCci5FATOox9lCcjZFATOoR91Ccj5FAROpx+FCUhAQeBU+lGZgCQUBE6jH6UJSERB4BT6UZuAZBQEHqcfxQlISEHgMfpRnYCkFAQeph/lCUhMQeAh+lGfgOQUBO6nHw0IyAUUBO6jHx0IyCUUBO6mHy0IyEUUBO6iHz0IyGUUBG7TjyYE5EIKAj/Tjy4E5FIKAj/SjzYE5GIKAjfpRx8CcjkFge/0oxEBWYGCwFf60YmArEFB4Av9aEVAVqEgcE0/ehGQdSgI6Ec7ArISBQH96EZA1qIgdKcf7QjIahSE3vSjHwFZj4LQmX40JCArUhD60o+OBGRNCkJX+tGSgKxKQehJP3oSkHUpCB3pR1MCsjIFoR/96EpA1qYgdKMfbQnI6hSEXvSjLwFZn4LQiX40JiAbUBD60I/OBGQLCkIX+tGagGxCQehBP3oTkG0oCB3oR3MCshEFoT796E5AtqIgVKcf7QnIZhSE2vQDAdmOglCZfiAgW1IQ6tIPBGRbCkJV+sEnArIpBaEm/eCagGxLQahIP/hMQDamINSjH3whIFtTEKrRDxYCsjkFoRb94CsB2Z6CUIl+8I2A7EBBqEM/+E5A9qAgVKEf3CAgu1AQatAPbhKQfSgIFegHPxCQnSgI89MPfiQge1EQZqcf/ERAdqMgzE0/+JmA7EdBmJl+cIuA7EhBmJd+cJuA7ElBmJV+cAcB2ZWCMCf94C4Csi8FYUb6wZ0EZGcKwnz0g7sJyN4UhNnoB/cQkN0pCHPRD+4jIPtTEGaiH9xLQA6gIMxDP7ifgBxBQZiFfvAAATmEgjAH/eAhAnIMBWEG+sGDBOQgCsL49IOHCchRFITR6QePEJDDKAhj0w8eIyDHURBGph88SkAOpCCMSz94nIAcSUEYlX5wAgE5lIIwJv3gFAJyLAVhRPrBSQTkYArCePSD0wjI0RSE0egHJxKQwykIY9EPTiUgx1MQRqIfnExABqAgjEM/OJ2AjEBBGIV+cAYBGYKCMAb94BwCMgYFYQT6wVkEZBAKwvH0g/MIyCgUhKPpB2cSkGEoCMfSD84lIONQEI6kH5xNQAaiIBxHPzifgIxEQTiKfhAQkKEoCMfQDxICMhYF4Qj6QURABqMg7E8/yAjIaBSEvekHIQEZjoKwL/0gJSDjURD2pB/EBGRACsJ+9IOcgIxIQdiLfnABARmSgrAP/eASAjImBWEP+sFFBGRQCsL29IPLCMioFISt6QcXEpBhKQjb0g8uJSDjUhC2pB9cTEAGpiBsRz+4nICMTEHYin6wAgEZmoKwDf1gDQIyNgVhC/rBKgRkcArC+vSDdQjI6BSEtekHKxGQ4SkI69IP1iIg41MQ1qQfrEZAJqAgrEc/WI+AzEBBWIt+sCIBmYKCsA79YE0CMgcFYQ36waoEZBIKwuX0g3UJyCwUhEvpBysTkGkoCJfRD9YmIPNQEC6hH6xOQCaiIOT0g/UJyEwUhJR+sAEBmYqCkNEPtiAgc1EQEvrBJgRkMgrC+fSDbQjIbBSEc+kHGxGQ6SgI59EPtiIg81EQzqEfbEZAJqQgnE4/2I6AzEhBOJV+sCEBmZKCcBr9YEsCMicF4RT6waYEZFIKwuP0g20JyKwUhMfoBxsTkGkpCA/TD7YmIPNSEB6iH2xOQCamINxPP9iegMxMQbiPfrADAZmagnA3/WAPAjI3BeEu+sEuBGRyCsJt+sE+BGR2CsLP9IOdCMj0FIQf6Qd7EZD5KQg36Qe7EZACFITv9IP9CEgFCsJX+sGOBKQEBeEL/WBPAlKDgnBNP9iVgBShIOgHexOQKhQE/WBnAlKGgnSnH+xNQOpQkN70g90JSCEK0pl+sD8BqURB+tIPDiAgpShIV/rBEQSkFgXpST84hIAUoyAd6QfHEJBqFKQf/eAgAlKOgnSjHxxFQOpRkF70g8MISEEK0ol+cBwBqUhB+tAPDiQgJSlIF/rBkQSkJgXpQT84lIAUpSAd6AfHEpCqFKQ+/eBgAlKWglSnHxxNQOpSkNr0g8MJSGEKUpl+cDwBqUxB6tIPBiAgpSlIVfrBCASkNgWpST8YgoAUpyAV6QdjEJDqFKQe/WAQAlKeglSjH4xCQOpTkFr0g2EISAMKUol+MA4B6UBB6tAPBiIgLShIFfrBSASkBwWpQT8YioA0oSAV6AdjEZAuFGR++sFgBKQNBZmdfjAaAelDQeamHwxHQBpRkJnpB+MRkE4UZF76wYAEpBUFmZV+MCIB6UVB5qQfDElAmlGQGekHYxKQbhRkPvrBoASkHQWZjX4wKgHpR0Hmoh8MS0AaUpCZ6AfjEpCOFGQe+sHABKQlBZmFfjAyAelJQeagHwxNQJpSkBnoB2MTkK4UZHz6weAEpC0FGZ1+MDoB6UtBxqYfDE9AGlOQkekH4xOQzhRkXPrBBASkNQUZlX4wAwHpTUHGpB9MQUCaU5AR6QdzEJDuFGQ8+sEkBKQ9BRmNfjALAUFBxqIfTENAUJCh6AfzEBAUZCT6wUQEhE8UZBT6wUwEhGsKMgb9YCoCwmcKMgL9YC4CwhcKcjz9YDICwkJBjqYfzEZA+EpBjqUfTEdA+EZBjqQfzEdA+E5BjqMfTEhAuEFBjqIfzEhAuElBjqEfTElA+IGCHEE/mJOA8CMF2Z9+MCkB4ScKsjf9YFYCws8UZF/6wbQEhFsUZE/6wbwEhNsUZD/6wcQEhDsoyF70g5kJCHdRkH3oB1MTEO6kIHvQD+YmINxNQbanH0xOQLiHgmxNP5idgHAfBdmWfjA9AeFeCrIl/WB+AsL9FGQ7+kEBAsIDFGQr+kEFAsJDFGQb+kEJAsKDFGQL+kENAsLDFGR9+kERAsIjFGRt+kEVAsJjFGRd+kEZAsKjFGRN+kEdAsLjFGQ9+kEhAsIJFGQt+kElAsIpFGQd+kEpAsJJFGQN+kEtAsJpFORy+kExAsKJFORS+kE1AsKpFOQy+kE5AsLJFOQS+kE9AsLpFCSnHxQkIJxBQVL6QUUCwjkUJKMflCQgnEVBEvpBTQLCeRTkfPpBUQLCmRTkXPpBVQLCuRTkPPpBWQLC2RTkHPpBXQLC+RTkdPpBYQJCQEFOpR9UJiAkFOQ0+kFpAkJEQU6hH9QmIGQU5HH6QXECQkhBHqMfVCcgpBTkYfpBeQJCTEEeoh/UJyDkFOR++kEDAsIFFOQ++kEHAsIlFORu+kELAsJFFOQu+kEPAsJlFOQ2/aAJAeFCCvIz/aALAeFSCvIj/aANAeFiCnKTftCHgHA5BflOP2hEQFiBgnylH3QiIKxBQb7QD1oREFahINf0g14EhHUoiH7QjoCwEgXRD7oRENbSvSD6QTsCwmp6F0Q/6EdAWE/ngugHDQkIK+pbEP2gIwFhTV0Loh+0JCCsqmdB9IOeBIR1dSyIftCUgLCyfgXRD7oSENbWrSD6QVsCwup6FUQ/6EtAWF+ngugHjQkIG+hTEP2gMwFhC10Koh+0JiBsokdB9IPeBIRtdCiIftCcgLCR+gXRD7oTELZSvSD6QXsCwmZqF0Q/QEDYTuWC6AcICFuqWxD9AAFhW1ULoh/wiYCwqZoF0Q+4JiBsq2JB9AM+ExA2Vq8g+gFfCAhbq1YQ/YCFgLC5WgXRD/hKQNhepYLoB3wjIOygTkH0A74TEPZQpSD6ATcICLuoURD9gJsEhH1UKIh+wA8EhJ3MXxD9gB8JCHuZvSD6AT8REHYzd0H0A34mIOxn5oLoB9wiIOxo3oLoB9wmIOxp1oLoB9xBQNjVnAXRD7iLgLCvGQuiH3AnAWFn8xVEP+BuAsLeZiuIfsA9BITdzVUQ/YD7CAj7m6kg+gH3EhAOME9B9APuJyAcYZaC6Ac8QEA4xBwF0Q94iIBwjBkKoh/wIAHhIOMXRD/gYQLCUUYviH7AIwSEw4xdEP2AxwgIxxm5IPoBjxIQDjRuQfQDHicgHGnUgugHnEBAONSYBdEPOIWAcKwRC/J0+XMk+sGABISDjViQ8egHIxIQjqYgj9MPhiQgHE5BHqMfjElAOJ6CPEw/GJSAMAAFeYh+MCoBYQQKcj/9YFgCwhAU5D76wbgEhDEoyN30g4EJCINQkLvoByMTEEahILfpB0MTEIahID/TD8YmIIxDQX6kHwxOQBiIgtykH4xOQBiJgnynHwxPQBiKgnylH4xPQBiLgnyhH0xAQBiMglzTD2YgIIxGQfSDSQgIw1EQ/WAOAsJ4uhdEP5iEgDCg3gXRD2YhIIyoc0H0g2kICEPqWxD9YB4Cwpi6FkQ/mIiAMKieBdEPZiIgjKpjQfSDqQgIw+pXEP1gLgLCuLoVRD+YjIAwsF4F0Q9mIyCMrFNB9IPpCAhD61MQ/WA+AsLYuhREP5iQgDC4HgXRD2YkIIyuQ0H0gykJCMOrXxD9YE4CwviqF0Q/mJSAMIHaBdEPZiUgzKByQfSDaQkIU6hbEP1gXgLCHKoWRD+YmIAwiZoF0Q9mJiDMomJB9IOpCQjTqFcQ/WBuAsI8qhVEP5icgDCRWgXRD2YnIMykUkH0g+kJCFOpUxD9YH4CwlyqFEQ/KEBAmEyNgugHFQgIs6lQEP2gBAFhOvMXRD+oQUCYz+wF0Q+KEBAmNHdB9IMqBIQZzVwQ/aAMAWFK8xZEP6hDQJjTrAXRDwoRECY1Z0H0g0oEhFnNWBD9oBQBYVrzFUQ/qEVAmNdsBdEPihEQJjZXQfSDagSEmc1UEP2gHAFhavMURD+oR0CY2ywF0Q8KEhAmN0dB9IOKBITZzVAQ/aAkAWF64xdEP6hJQJjf6AXRD4oSEAoYuyD6QVUCQgUjF0Q/KEtAKGHcgugHdQkINYxaEP2gMAGhiDELoh9UJiBUMWJB9IPSBIQyxiuIflCbgFDHaAXRD4oTEAoZqyD6QXUCQiUjFUQ/KE9AKGWcgugH9QkItYxSEP2gAQGhmDEKoh90ICBUM0JB9IMWBIRyji+IftCDgFDP0QXRD5oQEAo6tiD6QRcCQkVHFkQ/aENAKOm4gugHfQgINR1VEP2gEQGhqGMKoh90IiBUdURB9INWBISy9i+IftCLgFDX3gXRD5oREArbtyD6QTcCQmV7FkQ/aEdAKG2/gugH/QgIte1VEP2gIQGhuH0Koh90JCBUt0dB9IOWBITyti+IftCTgFDf1gXRD5oSEBrYtiD6QVcCQgdbFkQ/aEtAaGG7gugHfQkIPWxVEP2gMQGhiW0Koh90JiB0sUVB9IPWBIQ21i+IftCbgNDH2gXRD5oTEBpZtyD6QXcCQidrFkQ/aE9AaGW9gugHCAi9PFk+/y/197I9aExAaObvpQCX+X3ZGnQmIHTzbmnAJd4t24LWBIR23i8VyD1btgS9CQj9/PV0CUHm6YtlO9CcgNDRJRMhpj9gISC09Gypwfn+XLYACAhN/bIE4Txmz+E7AaGrN+cvKnxi9gNuEBD6enleQt7+szwP+ExA6OzX0xem//3X8hxgISD09uLVEoiHvfqwPB74RkBo76/H5tPf+fIBdxEQ+PjxzbP7Vob8/szEOdxDQOCLD/+8/uXtko1rT949+8cPV/AAAYGf/PeHtwWcwjsFgIiAABAREAAiAgJAREAAiAgIABEBASAiIABEBASAiIAAEBEQACICAkBEQACICAgAEQEBICIgAEQEBICIgAAQERAAIgICQERAAIgICAARAQEgIiAARAQEgIiAABAREAAiAgJAREAAiAgIABEBASAiIABEBASAiIAAEBEQACICAkBEQACICAgAEQEBICIgAEQEBICIgAAQERAAIgICQERAAIgICAARAQEgIiAARAQEgIiAABAREAAiAgJAREAAiAgIABEBASAiIABEBASAiIAAEBEQACICAkBEQACICAgAEQEBICIgAEQEBICIgAAQERAAIgICQERAAIgICAARAQEgIiAARAQEgIiAABAREAAiAgJAREAAiAgIABEBASAiIABEBASAiIAAEBEQACICAkBEQACICAgAEQEBICIgAEQEBICIgAAQERAAIgICQERAAIgICAARAQEgIiAARAQEgIiAABAREAAiAgJAREAAiAgIABEBASAiIABEBASAiIAAEBEQACICAkBEQACICAgAEQEBICIgAEQEBICIgAAQERAAIgICQERAAIgICAARAQEgIiAARAQEgIiAABAREAAiAgJAREAAiAgIABEBASAiIABEBASAiIAAEBEQACICAkBEQACICAgAEQEBICIgAEQEBICIgAAQERAAIgICQERAAIgICAARAQEgIiAARAQEgIiAABAREAAiAgJAREAAiAgIABEBASAiIABEBASAiIAAEBEQACICAkBEQACICAgAEQEBICIgAEQEBICIgAAQERAAIgICQERAAIgICAARAQEgIiAARAQEgIiAABAREAAiAgJAREAAiAgIABEBASAiIABEBASAiIAAEBEQACICAkBEQACICAgAEQEBICIgAEQEBICIgAAQERAAIgICQERAAIgICAARAQEgIiAARAQEgIiAABAREAAiAgJAREAAiAgIABEBASAiIABEBASAiIAAEBEQACICAkBEQACICAgAEQEBICIgAEQEBICIgAAQERAAIgICQERAAIgICAARAQEgIiAARAQEgIiAABAREAAiAgJAREAAiAgIABEBASAiIABEBASAiIAAEBEQACICAkBEQACICAgAEQEBICIgAEQEBICIgAAQERAAIgICQERAAIgICAARAQEgIiAARAQEgIiAABAREAAiAgJAREAAiAgIABEBASAiIABEBASAiIAAEBEQACICAkBEQACICAgAEQEBICIgAEQEBICIgAAQERAAIgICQERAAIgICAARAQEgIiAARAQEgIiAABAREAAiAgJAREAAiAgIABEBASAiIABEBASAiIAAEBEQACICAkBEQACICAgAEQEBICIgAEQEBICIgAAQERAAIgICQERAAIgICAARAQEgIiAARAQEgIiAABAREAAiAgJAREAAiAgIABEBASAiIABEBASAiIAAEBEQACICAkBEQACICAgAEQEBICIgAEQEBICIgAAQERAAIgICQERAAIgICAARAQEgIiAARAQEgIiAABAREAAiAgJAREAAiAgIABEBASAiIABEBASAiIAAEBEQACICAkBEQACICAgAEQEBICIgAEQEBICIgAAQERAAIgICQERAAIgICAARAQEgIiAARAQEgIiAABAREAAiAgJAREAAiAgIABEBASAiIABEBASAiIAAEBEQACICAkBEQACICAgAEQEBICIgAEQEBICIgAAQERAAIgICQERAAIgICAARAQEgIiAARAQEgIiAABAREAAiAgJAREAAiAgIABEBASAiIABEBASAiIAAEBEQACICAkBEQACICAgAEQEBICIgAEQEBICIgAAQERAAIgICQERAAIgICAARAQEgIiAARAQEgIiAABAREAAiAgJAREAAiAgIABEBASAiIABEBASAiIAAEBEQACICAkBEQACICAgAEQEBICIgAEQEBICIgAAQERAAIgICQERAAIgICAARAQEgIiAARAQEgIiAABAREAAiAgJAREAAiAgIABEBASAiIABEBASAiIAAEBEQACICAkBEQACICAgAEQEBICIgAEQEBICIgAAQERAAIgICQERAAIgICAARAQEgIiAARAQEgIiAABAREAAiAgJAREAAiAgIABEBASAiIABEBASAiIAAEBEQACICAkBEQACICAgAEQEBICIgAEQEBICIgAAQERAAIgICQERAAIgICAARAQEgIiAARAQEgIiAABAREAAiAgJAREAAiAgIABEBASAiIABEBASAiIAAEBEQACICAkBEQACICAgAEQEBICIgAEQEBICIgAAQERAAIgICQERAAIgICAARAQEgIiAARAQEgIiAABAREAAiAgJAREAAiAgIABEBASAiIABEBASAiIAAEBEQACICAkBEQACICAgAgY8f/w+71y8dxM3IpAAAAABJRU5ErkJggg==;" parent="pkxwIuhRlSJscm1fMJWJ-212" vertex="1">
          <mxGeometry x="212.69870609981515" y="150" width="10.401744454713493" height="12.130314232902032" as="geometry" />
        </mxCell>
        <mxCell id="pkxwIuhRlSJscm1fMJWJ-167" value="" style="rounded=0;whiteSpace=wrap;html=1;align=center;labelPosition=center;verticalLabelPosition=middle;verticalAlign=middle;" parent="pkxwIuhRlSJscm1fMJWJ-212" vertex="1">
          <mxGeometry x="15.046210720887245" y="177" width="211.3308687615527" height="48" as="geometry" />
        </mxCell>
        <mxCell id="pkxwIuhRlSJscm1fMJWJ-170" value="" style="group" parent="pkxwIuhRlSJscm1fMJWJ-212" vertex="1" connectable="0">
          <mxGeometry x="22.569316081330868" y="181.50000000000003" width="37.61552680221811" height="11.25" as="geometry" />
        </mxCell>
        <mxCell id="pkxwIuhRlSJscm1fMJWJ-168" value="" style="ellipse;whiteSpace=wrap;html=1;aspect=fixed;fillColor=#000000;" parent="pkxwIuhRlSJscm1fMJWJ-170" vertex="1">
          <mxGeometry y="3" width="3.63909426987061" height="3.63909426987061" as="geometry" />
        </mxCell>
        <mxCell id="pkxwIuhRlSJscm1fMJWJ-169" value="Course 1" style="text;html=1;strokeColor=none;fillColor=none;align=center;verticalAlign=middle;whiteSpace=wrap;rounded=0;fontSize=9;" parent="pkxwIuhRlSJscm1fMJWJ-170" vertex="1">
          <mxGeometry x="6.839186691312384" width="30.77634011090573" height="11.25" as="geometry" />
        </mxCell>
        <mxCell id="pkxwIuhRlSJscm1fMJWJ-175" value="" style="ellipse;whiteSpace=wrap;html=1;aspect=fixed;fillColor=#000000;" parent="pkxwIuhRlSJscm1fMJWJ-212" vertex="1">
          <mxGeometry x="22.569316081330868" y="198.00000000000003" width="3.63909426987061" height="3.63909426987061" as="geometry" />
        </mxCell>
        <mxCell id="pkxwIuhRlSJscm1fMJWJ-176" value="Course 2" style="text;html=1;strokeColor=none;fillColor=none;align=center;verticalAlign=middle;whiteSpace=wrap;rounded=0;fontSize=9;" parent="pkxwIuhRlSJscm1fMJWJ-212" vertex="1">
          <mxGeometry x="29.408502772643253" y="195" width="30.77634011090573" height="11.25" as="geometry" />
        </mxCell>
        <mxCell id="pkxwIuhRlSJscm1fMJWJ-177" value="" style="ellipse;whiteSpace=wrap;html=1;aspect=fixed;fillColor=#000000;" parent="pkxwIuhRlSJscm1fMJWJ-212" vertex="1">
          <mxGeometry x="22.569316081330868" y="212.25" width="3.63909426987061" height="3.63909426987061" as="geometry" />
        </mxCell>
        <mxCell id="pkxwIuhRlSJscm1fMJWJ-178" value="Course 3" style="text;html=1;strokeColor=none;fillColor=none;align=center;verticalAlign=middle;whiteSpace=wrap;rounded=0;fontSize=9;" parent="pkxwIuhRlSJscm1fMJWJ-212" vertex="1">
          <mxGeometry x="29.408502772643253" y="209.25000000000003" width="30.77634011090573" height="11.25" as="geometry" />
        </mxCell>
        <mxCell id="pkxwIuhRlSJscm1fMJWJ-179" value="Enter account expiration date" style="rounded=0;whiteSpace=wrap;html=1;align=left;" parent="pkxwIuhRlSJscm1fMJWJ-212" vertex="1">
          <mxGeometry x="14.704251386321626" y="237" width="212.01478743068392" height="15" as="geometry" />
        </mxCell>
        <mxCell id="pkxwIuhRlSJscm1fMJWJ-180" value="" style="shape=image;imageAspect=0;aspect=fixed;verticalLabelPosition=bottom;verticalAlign=top;image=data:image/png,iVBORw0KGgoAAAANSUhEUgAABkAAAAZACAMAAAAW0n6VAAAAAXNSR0IArs4c6QAAAARnQU1BAACxjwv8YQUAAAMAUExURQAAAAAAAAAAAAAAAAAAAAAAAAAAAAAAAAAAAAAAAAAAAAAAAAAAAAAAAAAAAAAAAAAAAAAAAAAAAAAAAAAAAAAAAAAAAAAAAAAAAAAAAAAAAAAAAAAAAAAAAAAAAAAAAAAAAAAAAAAAAAAAAAAAAAAAAAAAAAAAAAAAAAAAMwAAZgAAmQAAzAAA/wAzAAAzMwAzZgAzmQAzzAAz/wBmAABmMwBmZgBmmQBmzABm/wCZAACZMwCZZgCZmQCZzACZ/wDMAADMMwDMZgDMmQDMzADM/wD/AAD/MwD/ZgD/mQD/zAD//zMAADMAMzMAZjMAmTMAzDMA/zMzADMzMzMzZjMzmTMzzDMz/zNmADNmMzNmZjNmmTNmzDNm/zOZADOZMzOZZjOZmTOZzDOZ/zPMADPMMzPMZjPMmTPMzDPM/zP/ADP/MzP/ZjP/mTP/zDP//2YAAGYAM2YAZmYAmWYAzGYA/2YzAGYzM2YzZmYzmWYzzGYz/2ZmAGZmM2ZmZmZmmWZmzGZm/2aZAGaZM2aZZmaZmWaZzGaZ/2bMAGbMM2bMZmbMmWbMzGbM/2b/AGb/M2b/Zmb/mWb/zGb//5kAAJkAM5kAZpkAmZkAzJkA/5kzAJkzM5kzZpkzmZkzzJkz/5lmAJlmM5lmZplmmZlmzJlm/5mZAJmZM5mZZpmZmZmZzJmZ/5nMAJnMM5nMZpnMmZnMzJnM/5n/AJn/M5n/Zpn/mZn/zJn//8wAAMwAM8wAZswAmcwAzMwA/8wzAMwzM8wzZswzmcwzzMwz/8xmAMxmM8xmZsxmmcxmzMxm/8yZAMyZM8yZZsyZmcyZzMyZ/8zMAMzMM8zMZszMmczMzMzM/8z/AMz/M8z/Zsz/mcz/zMz///8AAP8AM/8AZv8Amf8AzP8A//8zAP8zM/8zZv8zmf8zzP8z//9mAP9mM/9mZv9mmf9mzP9m//+ZAP+ZM/+ZZv+Zmf+ZzP+Z///MAP/MM//MZv/Mmf/MzP/M////AP//M///Zv//mf//zP///69WTRwAAAAodFJOUzbd9P6TxGuq61HMe7NDm1qD5Lli1KJKc4w5AAAAAAAAAAAAAAAAAAApCyKWAAAACXBIWXMAAA7DAAAOwwHHb6hkAAAnXklEQVR4Xu3da5PTxhaG0QNDQggEAgkk4f//0MOAgIG52a916d57rS9UgS2rqmU/2K2W/vcRAAICAkBEQACICAgAEQEBICIgAEQEBICIgAAQERAAIgICQERAAIgICAARAQEgIiAARAQEgIiAABAREAAiAgJAREAAiAgIABEBASAiIABEBASAiIAAEBEQACICAkBEQACICAgAEQEBICIgAEQEBICIgAAQERAAIgICQERAAIgICAARAQEgIiAARAQEgIiAABAREAAiAgJAREAAiAgIABEBASAiIABEBASAiIAAEBEQACICAkBEQACICAgAEQEBICIgAEQEBICIgAAQERAAIgICQERAAIgICAARAQEgIiAARAQEgIiAABAREAAiAgJAREAAiAgIABEBASAiIABEBASAiIAAEBEQACICAkBEQACICAgAEQEBICIgAEQEBICIgAAQERAAIgICQERAAIgICAARAQEgIiAARAQEgIiAABAREAAiAgJAREAAiAgIABEBASAiIABEBASAiIAAEBEQACICAkBEQACICAgAEQEBICIgAEQEBICIgAAQERAAIgICQERAAIgICAARAQEgIiAARAQEgIiAABAREAAiAgJAREAAiAgIABEBASAiIABEBASAiIAAEBEQACICAkBEQACICAgAEQEBICIgAEQEBICIgAAQERAAIgICQERAAIgICAARAQEgIiAARAQEgIiAABAREAAiAgJAREAAiAgIABEBASAiIABEBASAiIAAEBEQACICAkBEQACICAgAEQEBICIgAEQEBICIgAAQERAAIgICQERAAIgICAARAQEgIiAARAQEgIiAABAREAAiAgJAREAAiAgIABEBASAiIABEBASAiIAAEBEQACICAkBEQACICAgAEQEBICIgAEQEBICIgAAQERAAIgICQERAAIgICAARAQEgIiAARAQEgIiAABAREAAiAgJAREAAiAgIABEBASAiIABEBASAiIAAEBEQACICAkBEQACICAgAEQEBICIgAEQEBICIgAAQERAAIgICQERAAIgICAARAQEgIiAARAQEgIiAABAREAAiAgJAREAAiAgIABEBASAiIABEBASAiIAAEBEQACICAkBEQACICAgAEQEBICIgAEQEBICIgAAQERAAIgICQERAAIgICAARAQEgIiAARAQEgIiAABAREAAiAgJAREAAiAgIABEBASAiIABEBASAiIAAEBEQACICAkBEQACICAgAEQEBICIgAEQEBICIgAAQERAAIgICQERAAIgICAARAQEgIiAARAQEgIiAABAREAAiAgJAREAAiAgIABEBASAiIABEBASAiIAAEBEQACICAkBEQACICAgAEQEBICIgAEQEBICIgAAQERAAIgICQERAAIgICAARAQEgIiAARAQEgIiAABAREAAiAgJAREAAiAgIABEBASAiIABEBASAiIAAEBEQACICAkBEQACICAgAEQEBICIgAEQEBICIgAAQERAAIgICQERAAIgICAARAQEgIiAARAQEgIiAABAREAAiAgJAREAAiAgIABEBASAiIABEBASAiIAAEBEQACICAkBEQACICAgAEQEBICIgAEQEBICIgAAQERAAIgICQERAAIgICAARAQEgIiAARAQEgIiAABAREAAiAgJAREAAiAgIABEBASAiIABEBASAiIAAEBEQACICAkBEQACICAgAEQEBICIgAEQEBICIgAAQERAAIgICQERAAIgICAARAQEgIiAARAQEgIiAABAREAAiAgJAREAAiAgIABEBASAiIABEBASAiIAAEBEQACICAkBEQACICAgAEQEBICIgAEQEBICIgAAQERAAIgICQERAAIgICAARAQEgIiAARAQEgIiAABAREAAiAgJAREAAiAgIABEBASAiIABEBASAiIAAEBEQACICAkBEQACICAgAEQEBICIgAEQEBICIgAAQERAAIgICQERAAIgICAARAQEgIiAARAQEgIiAABAREAAiAgJAREAAiAgIABEBASAiIABEBASAiIAAEBEQACICAkBEQACICAgAEQEBICIgAEQEBICIgAAQERAAIgICQERAAIgICAARAQEgIiAARAQEgIiAABAREAAiAgJAREAAiAgIABEBASAiIABEBASAiIAAEBEQACICAkBEQACICAgAEQEBICIgAEQEBICIgAAQERAAIgICQERAAIgICAARAQEgIiAARAQEgIiAABAREAAiAgJAREAAiAgIABEBASAiIABEBASAiIAAEBEQACICAkBEQACICAgAEQEBICIgAEQEBICIgAAQERAAIgICQERAAIgICAARAQEgIiAARAQEgIiAABAREAAi3QPy35t/nr1+/vzd8/ev//3z1z+WvwW6+/Dy+S9Pfrv64unfv7x/+WH5F75pHJAPf756uxwd3z39/f1fy78DTf366unyifCj357/ujyCz7oG5OUvyxFxl7fv3ywPA5r54/Xt/1je9OTf/5ZH0jMgL/9eDoX7PX3v6yr08/LJ8hHwkLcvl0e31y8gH94tB8FjfvtzeQbQwn+nfjhcXT33NeRat4D89fiXj++ePlueBZR3Rj6uvZKQbgF5cU4+Pnu9PBMo7X/n5ePau+WpjbUKyO/LuJ/jqbMuoL5nyxv+PO1/5m4UkH+XMT/X7/3miaCXFw+feHW/t81Ptmnz4fhHeoR8YioEKnu+vNMTvT8dugTkz2W0M78vWwHqOeXM3fs9WbbSUpOAPLRs8BS/WRUCNb25e9H56Z42XnfcIyAX/Hz1lUUhUFE2e/6jvp8OHQLy4tL/YXzmhF6o55Lpj++eL1trp0FA/lrG+FJtjxEo69Xy7r7Uq2V73dQPyFr96HuMQFWXTo5+98uyxWbKB+TXZXzXYOEpVLJeP7oWpHpAXiyjuw4FgTrW7EfT37iLB+R/q8yff6cgUMW6/ei5pLB4QL7ekHI1CgI1rN2Pq6uGNzOtHZCzL777OAWBCtbvx9XTZdONlA7I+2VcV6UgML8N+tHxqiaVA7LeCbw/UBCY3Sb9aDiRXjkgK0+gf6MgMLeN+nF19WJ5gS4KB2StNaa3KQjMbLN+XP22vEIXdQPyZhnRLSgIzGu7flxdvV9eo4m6AVn9DN6bFARmtWU/rq6WF2mibEAuu4PUoxQE5rRtP5pd0qRsQLaaQf9KQWBGG/ej2Tx61YC8XgZzOwoC89m8H71ugF01IFt/AflEQWA22/fj6qrT/a+LBmTjGZAvFATmskc/Ws2CFA3IpqdgfaMgMJNd+tHqRKyaAdnoIia3KAjMY6d+dLque82A7HWgKAhMY7ePhUbL0WsGZBnHHSgIzGG3fnSaRi8ZkH+WYdyDgsAMduxHo+uZlAzInoeKgsAEdv1Q6PMbVsmALKO4EwWB0e3aj0bnYVUMyItlEPeiIDC2nftx9XJ53fIqBuTZMoi7URAY2d796PORUDEgvy+DuB8FgXHt3o8+kyAVA7KM4Z4UBEa1fz/6TIIIyDoUBMZ0RD+u3iwvXl3BgOx1HZMfKQiM6JB+XP25vHp1BQOyy5V4b1MQGM8x/bh6vbx8dQUD8n4Zwr0pCIzmoH60uaR7wYAcdcgoCAzmsA+DJ8sOVFcwIE+WIdyfgsBIDuvH1dNlD6orGJB9biZ1JwWBcRzXjzbn8RYMyA63Q7+XgsAojuyHgExrGcBjKAiM4dB+CMi0lgE8iILACI7th4BMaxnAoygIHO/gfgjItJYBPIyCwNGO7oeATOvISfTPFASOdXg/BGRaB57Gu1AQONLx/ehyPfeCAdn/diC3KAgc5/h+WIk+r1fLEB5JQeAoA/TDtbDm9XoZwkMpCBxjhH5cvV92prqCAflnGcJjKQgcYYh+XL1c9qa6ggH5sAzhwRQE9jdGP65eLLtTXcGAHL4QZKEgsLdB+tHlLN6SATn+PN4vFAT2NUo/ulzNvWRARjgN6zMFgT2N0o+rV8sOlVcxIGPMol9TENjPMP24+mfZo/IqBmSUSZBPFAT2Mk4/rv5bdqm8kgEZZRLkEwWBfQzUjy4XMikakCGWEi4UBPYwUD+uXi/7VF/JgPyxDOMQFAS2N1I/rj4sO1VfyYCM9BuWgsD2hupHm5N4qwbk2TKQY1AQ2NZQ/bh6tuxVAzUDMtB5WNcUBLY0Vj/aLEP/pGhABjugFAS2M9jbvcul3K8VDciLZShHoSCwlcH6cfVm2a8Oigbk49/LWI5CQWAbo/Xj72W/WqgakDfLYA5DQWALo/Wj1ReQsgEZ7iuIgsAGhutHl7uhf1E2IIPcVuoGBYG1DdePRosIr5UNyDgXdf9GQWBd4/Xj+bJnTdQNyGBrQa4pCKxpvH40WoT+WeGAvFyGdCAKAusZrx9XL5dd66JwQEY8vBQE1jLgG7zTGsLPKgfk49NlVAeiILCOAfvR7Qes4gH5axnWkSgIrGHAfvRaAvJZ6YAMdlXeLxQELjdiP/5d9q2R2gH5+G4Z2ZEoCFxqxH50fGcXD8jHJ8vYjkRB4DIj9qPVNbC+qh6Qj2+X0R2JgsAlRuxHr0uYfFU+IAoCxejHMOoHZKwbpC8UBFIj9uPtsm/dNAiIgkAh+jGQDgFREChDP0bSIiAKAkXox1B6BERBoAT9GEuTgCgIFKAfg+kSEAWB6enHaNoEREFgcvoxnD4BURCYmn6Mp1FAFAQmph8D6hQQBYFp6ceIWgVEQWBS+jGkXgFREJiSfoypWUAUBCakH4PqFhAFgenox6jaBURBYDL6Max+AVEQmIp+jKthQBQEJqIfA+sYEAWBaejHyFoGREFgEvoxtJ4BURCYgn6MrWlAFAQmoB+D6xoQBYHh6cfo2gZEQWBw+jG8vgFREBiafoyvcUAUBAamHxPoHBAFgWHpxwxaB0RBYFD6MYXeAVEQGJJ+zKF5QBQEBqQfk+geEAWB4ejHLNoHREFgMPoxDQFREBiKfsxDQBQERqIfExGQTxQERqEfMxGQawoCY9CPqQjIZwoCI9CPuQjIFwoCx9OPyQjIQkHgaPoxGwH5SkHgWPoxHQH5RkHgSPoxHwH5TkHgOPoxIQG5QUHgKPoxIwG5SUHgGPoxJQH5gYLAEfRjTgLyIwWB/enHpATkJwoCe9OPWQnIzxQE9qUf0xKQWxQE9qQf8xKQ2xQE9qMfExOQOygI7EU/ZiYgd1EQ2Id+TE1A7qQgsAf9mJuA3E1BYHv6MTkBuYeCwNb0Y3YCch8FgW3px/QE5F4KAlvSj/kJyP0UBLajHwUIyAMUBLaiHxUIyEMUBLahHyUIyIMUBLagHzUIyMMUBNanH0UIyCMUBNamH1UIyGMUBNalH2UIyKMUBNakH3UIyOMUBNajH4UIyAkUBNaiH5UIyCkUBNahH6UIyEkUBNagH7UIyGkUBC6nH8UIyIkUBC6lH9UIyKkUBC6jH+UIyMkUBC6hH/UIyOkUBHL6UZCAnEFBIKUfFQnIORQEMvpRkoCcRUEgoR81Cch5FATOpx9FCciZFATOpR9VCci5FATOox9lCcjZFATOoR91Ccj5FAROpx+FCUhAQeBU+lGZgCQUBE6jH6UJSERB4BT6UZuAZBQEHqcfxQlISEHgMfpRnYCkFAQeph/lCUhMQeAh+lGfgOQUBO6nHw0IyAUUBO6jHx0IyCUUBO6mHy0IyEUUBO6iHz0IyGUUBG7TjyYE5EIKAj/Tjy4E5FIKAj/SjzYE5GIKAjfpRx8CcjkFge/0oxEBWYGCwFf60YmArEFB4Av9aEVAVqEgcE0/ehGQdSgI6Ec7ArISBQH96EZA1qIgdKcf7QjIahSE3vSjHwFZj4LQmX40JCArUhD60o+OBGRNCkJX+tGSgKxKQehJP3oSkHUpCB3pR1MCsjIFoR/96EpA1qYgdKMfbQnI6hSEXvSjLwFZn4LQiX40JiAbUBD60I/OBGQLCkIX+tGagGxCQehBP3oTkG0oCB3oR3MCshEFoT796E5AtqIgVKcf7QnIZhSE2vQDAdmOglCZfiAgW1IQ6tIPBGRbCkJV+sEnArIpBaEm/eCagGxLQahIP/hMQDamINSjH3whIFtTEKrRDxYCsjkFoRb94CsB2Z6CUIl+8I2A7EBBqEM/+E5A9qAgVKEf3CAgu1AQatAPbhKQfSgIFegHPxCQnSgI89MPfiQge1EQZqcf/ERAdqMgzE0/+JmA7EdBmJl+cIuA7EhBmJd+cJuA7ElBmJV+cAcB2ZWCMCf94C4Csi8FYUb6wZ0EZGcKwnz0g7sJyN4UhNnoB/cQkN0pCHPRD+4jIPtTEGaiH9xLQA6gIMxDP7ifgBxBQZiFfvAAATmEgjAH/eAhAnIMBWEG+sGDBOQgCsL49IOHCchRFITR6QePEJDDKAhj0w8eIyDHURBGph88SkAOpCCMSz94nIAcSUEYlX5wAgE5lIIwJv3gFAJyLAVhRPrBSQTkYArCePSD0wjI0RSE0egHJxKQwykIY9EPTiUgx1MQRqIfnExABqAgjEM/OJ2AjEBBGIV+cAYBGYKCMAb94BwCMgYFYQT6wVkEZBAKwvH0g/MIyCgUhKPpB2cSkGEoCMfSD84lIONQEI6kH5xNQAaiIBxHPzifgIxEQTiKfhAQkKEoCMfQDxICMhYF4Qj6QURABqMg7E8/yAjIaBSEvekHIQEZjoKwL/0gJSDjURD2pB/EBGRACsJ+9IOcgIxIQdiLfnABARmSgrAP/eASAjImBWEP+sFFBGRQCsL29IPLCMioFISt6QcXEpBhKQjb0g8uJSDjUhC2pB9cTEAGpiBsRz+4nICMTEHYin6wAgEZmoKwDf1gDQIyNgVhC/rBKgRkcArC+vSDdQjI6BSEtekHKxGQ4SkI69IP1iIg41MQ1qQfrEZAJqAgrEc/WI+AzEBBWIt+sCIBmYKCsA79YE0CMgcFYQ36waoEZBIKwuX0g3UJyCwUhEvpBysTkGkoCJfRD9YmIPNQEC6hH6xOQCaiIOT0g/UJyEwUhJR+sAEBmYqCkNEPtiAgc1EQEvrBJgRkMgrC+fSDbQjIbBSEc+kHGxGQ6SgI59EPtiIg81EQzqEfbEZAJqQgnE4/2I6AzEhBOJV+sCEBmZKCcBr9YEsCMicF4RT6waYEZFIKwuP0g20JyKwUhMfoBxsTkGkpCA/TD7YmIPNSEB6iH2xOQCamINxPP9iegMxMQbiPfrADAZmagnA3/WAPAjI3BeEu+sEuBGRyCsJt+sE+BGR2CsLP9IOdCMj0FIQf6Qd7EZD5KQg36Qe7EZACFITv9IP9CEgFCsJX+sGOBKQEBeEL/WBPAlKDgnBNP9iVgBShIOgHexOQKhQE/WBnAlKGgnSnH+xNQOpQkN70g90JSCEK0pl+sD8BqURB+tIPDiAgpShIV/rBEQSkFgXpST84hIAUoyAd6QfHEJBqFKQf/eAgAlKOgnSjHxxFQOpRkF70g8MISEEK0ol+cBwBqUhB+tAPDiQgJSlIF/rBkQSkJgXpQT84lIAUpSAd6AfHEpCqFKQ+/eBgAlKWglSnHxxNQOpSkNr0g8MJSGEKUpl+cDwBqUxB6tIPBiAgpSlIVfrBCASkNgWpST8YgoAUpyAV6QdjEJDqFKQe/WAQAlKeglSjH4xCQOpTkFr0g2EISAMKUol+MA4B6UBB6tAPBiIgLShIFfrBSASkBwWpQT8YioA0oSAV6AdjEZAuFGR++sFgBKQNBZmdfjAaAelDQeamHwxHQBpRkJnpB+MRkE4UZF76wYAEpBUFmZV+MCIB6UVB5qQfDElAmlGQGekHYxKQbhRkPvrBoASkHQWZjX4wKgHpR0Hmoh8MS0AaUpCZ6AfjEpCOFGQe+sHABKQlBZmFfjAyAelJQeagHwxNQJpSkBnoB2MTkK4UZHz6weAEpC0FGZ1+MDoB6UtBxqYfDE9AGlOQkekH4xOQzhRkXPrBBASkNQUZlX4wAwHpTUHGpB9MQUCaU5AR6QdzEJDuFGQ8+sEkBKQ9BRmNfjALAUFBxqIfTENAUJCh6AfzEBAUZCT6wUQEhE8UZBT6wUwEhGsKMgb9YCoCwmcKMgL9YC4CwhcKcjz9YDICwkJBjqYfzEZA+EpBjqUfTEdA+EZBjqQfzEdA+E5BjqMfTEhAuEFBjqIfzEhAuElBjqEfTElA+IGCHEE/mJOA8CMF2Z9+MCkB4ScKsjf9YFYCws8UZF/6wbQEhFsUZE/6wbwEhNsUZD/6wcQEhDsoyF70g5kJCHdRkH3oB1MTEO6kIHvQD+YmINxNQbanH0xOQLiHgmxNP5idgHAfBdmWfjA9AeFeCrIl/WB+AsL9FGQ7+kEBAsIDFGQr+kEFAsJDFGQb+kEJAsKDFGQL+kENAsLDFGR9+kERAsIjFGRt+kEVAsJjFGRd+kEZAsKjFGRN+kEdAsLjFGQ9+kEhAsIJFGQt+kElAsIpFGQd+kEpAsJJFGQN+kEtAsJpFORy+kExAsKJFORS+kE1AsKpFOQy+kE5AsLJFOQS+kE9AsLpFCSnHxQkIJxBQVL6QUUCwjkUJKMflCQgnEVBEvpBTQLCeRTkfPpBUQLCmRTkXPpBVQLCuRTkPPpBWQLC2RTkHPpBXQLC+RTkdPpBYQJCQEFOpR9UJiAkFOQ0+kFpAkJEQU6hH9QmIGQU5HH6QXECQkhBHqMfVCcgpBTkYfpBeQJCTEEeoh/UJyDkFOR++kEDAsIFFOQ++kEHAsIlFORu+kELAsJFFOQu+kEPAsJlFOQ2/aAJAeFCCvIz/aALAeFSCvIj/aANAeFiCnKTftCHgHA5BflOP2hEQFiBgnylH3QiIKxBQb7QD1oREFahINf0g14EhHUoiH7QjoCwEgXRD7oRENbSvSD6QTsCwmp6F0Q/6EdAWE/ngugHDQkIK+pbEP2gIwFhTV0Loh+0JCCsqmdB9IOeBIR1dSyIftCUgLCyfgXRD7oSENbWrSD6QVsCwup6FUQ/6EtAWF+ngugHjQkIG+hTEP2gMwFhC10Koh+0JiBsokdB9IPeBIRtdCiIftCcgLCR+gXRD7oTELZSvSD6QXsCwmZqF0Q/QEDYTuWC6AcICFuqWxD9AAFhW1ULoh/wiYCwqZoF0Q+4JiBsq2JB9AM+ExA2Vq8g+gFfCAhbq1YQ/YCFgLC5WgXRD/hKQNhepYLoB3wjIOygTkH0A74TEPZQpSD6ATcICLuoURD9gJsEhH1UKIh+wA8EhJ3MXxD9gB8JCHuZvSD6AT8REHYzd0H0A34mIOxn5oLoB9wiIOxo3oLoB9wmIOxp1oLoB9xBQNjVnAXRD7iLgLCvGQuiH3AnAWFn8xVEP+BuAsLeZiuIfsA9BITdzVUQ/YD7CAj7m6kg+gH3EhAOME9B9APuJyAcYZaC6Ac8QEA4xBwF0Q94iIBwjBkKoh/wIAHhIOMXRD/gYQLCUUYviH7AIwSEw4xdEP2AxwgIxxm5IPoBjxIQDjRuQfQDHicgHGnUgugHnEBAONSYBdEPOIWAcKwRC/J0+XMk+sGABISDjViQ8egHIxIQjqYgj9MPhiQgHE5BHqMfjElAOJ6CPEw/GJSAMAAFeYh+MCoBYQQKcj/9YFgCwhAU5D76wbgEhDEoyN30g4EJCINQkLvoByMTEEahILfpB0MTEIahID/TD8YmIIxDQX6kHwxOQBiIgtykH4xOQBiJgnynHwxPQBiKgnylH4xPQBiLgnyhH0xAQBiMglzTD2YgIIxGQfSDSQgIw1EQ/WAOAsJ4uhdEP5iEgDCg3gXRD2YhIIyoc0H0g2kICEPqWxD9YB4Cwpi6FkQ/mIiAMKieBdEPZiIgjKpjQfSDqQgIw+pXEP1gLgLCuLoVRD+YjIAwsF4F0Q9mIyCMrFNB9IPpCAhD61MQ/WA+AsLYuhREP5iQgDC4HgXRD2YkIIyuQ0H0gykJCMOrXxD9YE4CwviqF0Q/mJSAMIHaBdEPZiUgzKByQfSDaQkIU6hbEP1gXgLCHKoWRD+YmIAwiZoF0Q9mJiDMomJB9IOpCQjTqFcQ/WBuAsI8qhVEP5icgDCRWgXRD2YnIMykUkH0g+kJCFOpUxD9YH4CwlyqFEQ/KEBAmEyNgugHFQgIs6lQEP2gBAFhOvMXRD+oQUCYz+wF0Q+KEBAmNHdB9IMqBIQZzVwQ/aAMAWFK8xZEP6hDQJjTrAXRDwoRECY1Z0H0g0oEhFnNWBD9oBQBYVrzFUQ/qEVAmNdsBdEPihEQJjZXQfSDagSEmc1UEP2gHAFhavMURD+oR0CY2ywF0Q8KEhAmN0dB9IOKBITZzVAQ/aAkAWF64xdEP6hJQJjf6AXRD4oSEAoYuyD6QVUCQgUjF0Q/KEtAKGHcgugHdQkINYxaEP2gMAGhiDELoh9UJiBUMWJB9IPSBIQyxiuIflCbgFDHaAXRD4oTEAoZqyD6QXUCQiUjFUQ/KE9AKGWcgugH9QkItYxSEP2gAQGhmDEKoh90ICBUM0JB9IMWBIRyji+IftCDgFDP0QXRD5oQEAo6tiD6QRcCQkVHFkQ/aENAKOm4gugHfQgINR1VEP2gEQGhqGMKoh90IiBUdURB9INWBISy9i+IftCLgFDX3gXRD5oREArbtyD6QTcCQmV7FkQ/aEdAKG2/gugH/QgIte1VEP2gIQGhuH0Koh90JCBUt0dB9IOWBITyti+IftCTgFDf1gXRD5oSEBrYtiD6QVcCQgdbFkQ/aEtAaGG7gugHfQkIPWxVEP2gMQGhiW0Koh90JiB0sUVB9IPWBIQ21i+IftCbgNDH2gXRD5oTEBpZtyD6QXcCQidrFkQ/aE9AaGW9gugHCAi9PFk+/y/197I9aExAaObvpQCX+X3ZGnQmIHTzbmnAJd4t24LWBIR23i8VyD1btgS9CQj9/PV0CUHm6YtlO9CcgNDRJRMhpj9gISC09Gypwfn+XLYACAhN/bIE4Txmz+E7AaGrN+cvKnxi9gNuEBD6enleQt7+szwP+ExA6OzX0xem//3X8hxgISD09uLVEoiHvfqwPB74RkBo76/H5tPf+fIBdxEQ+PjxzbP7Vob8/szEOdxDQOCLD/+8/uXtko1rT949+8cPV/AAAYGf/PeHtwWcwjsFgIiAABAREAAiAgJAREAAiAgIABEBASAiIABEBASAiIAAEBEQACICAkBEQACICAgAEQEBICIgAEQEBICIgAAQERAAIgICQERAAIgICAARAQEgIiAARAQEgIiAABAREAAiAgJAREAAiAgIABEBASAiIABEBASAiIAAEBEQACICAkBEQACICAgAEQEBICIgAEQEBICIgAAQERAAIgICQERAAIgICAARAQEgIiAARAQEgIiAABAREAAiAgJAREAAiAgIABEBASAiIABEBASAiIAAEBEQACICAkBEQACICAgAEQEBICIgAEQEBICIgAAQERAAIgICQERAAIgICAARAQEgIiAARAQEgIiAABAREAAiAgJAREAAiAgIABEBASAiIABEBASAiIAAEBEQACICAkBEQACICAgAEQEBICIgAEQEBICIgAAQERAAIgICQERAAIgICAARAQEgIiAARAQEgIiAABAREAAiAgJAREAAiAgIABEBASAiIABEBASAiIAAEBEQACICAkBEQACICAgAEQEBICIgAEQEBICIgAAQERAAIgICQERAAIgICAARAQEgIiAARAQEgIiAABAREAAiAgJAREAAiAgIABEBASAiIABEBASAiIAAEBEQACICAkBEQACICAgAEQEBICIgAEQEBICIgAAQERAAIgICQERAAIgICAARAQEgIiAARAQEgIiAABAREAAiAgJAREAAiAgIABEBASAiIABEBASAiIAAEBEQACICAkBEQACICAgAEQEBICIgAEQEBICIgAAQERAAIgICQERAAIgICAARAQEgIiAARAQEgIiAABAREAAiAgJAREAAiAgIABEBASAiIABEBASAiIAAEBEQACICAkBEQACICAgAEQEBICIgAEQEBICIgAAQERAAIgICQERAAIgICAARAQEgIiAARAQEgIiAABAREAAiAgJAREAAiAgIABEBASAiIABEBASAiIAAEBEQACICAkBEQACICAgAEQEBICIgAEQEBICIgAAQERAAIgICQERAAIgICAARAQEgIiAARAQEgIiAABAREAAiAgJAREAAiAgIABEBASAiIABEBASAiIAAEBEQACICAkBEQACICAgAEQEBICIgAEQEBICIgAAQERAAIgICQERAAIgICAARAQEgIiAARAQEgIiAABAREAAiAgJAREAAiAgIABEBASAiIABEBASAiIAAEBEQACICAkBEQACICAgAEQEBICIgAEQEBICIgAAQERAAIgICQERAAIgICAARAQEgIiAARAQEgIiAABAREAAiAgJAREAAiAgIABEBASAiIABEBASAiIAAEBEQACICAkBEQACICAgAEQEBICIgAEQEBICIgAAQERAAIgICQERAAIgICAARAQEgIiAARAQEgIiAABAREAAiAgJAREAAiAgIABEBASAiIABEBASAiIAAEBEQACICAkBEQACICAgAEQEBICIgAEQEBICIgAAQERAAIgICQERAAIgICAARAQEgIiAARAQEgIiAABAREAAiAgJAREAAiAgIABEBASAiIABEBASAiIAAEBEQACICAkBEQACICAgAEQEBICIgAEQEBICIgAAQERAAIgICQERAAIgICAARAQEgIiAARAQEgIiAABAREAAiAgJAREAAiAgIABEBASAiIABEBASAiIAAEBEQACICAkBEQACICAgAEQEBICIgAEQEBICIgAAQERAAIgICQERAAIgICAARAQEgIiAARAQEgIiAABAREAAiAgJAREAAiAgIABEBASAiIABEBASAiIAAEBEQACICAkBEQACICAgAEQEBICIgAEQEBICIgAAQERAAIgICQERAAIgICAARAQEgIiAARAQEgIiAABAREAAiAgJAREAAiAgIABEBASAiIABEBASAiIAAEBEQACICAkBEQACICAgAEQEBICIgAEQEBICIgAAQERAAIgICQERAAIgICAARAQEgIiAARAQEgIiAABAREAAiAgJAREAAiAgIABEBASAiIABEBASAiIAAEBEQACICAkBEQACICAgAEQEBICIgAEQEBICIgAAQERAAIgICQERAAIgICAARAQEgIiAARAQEgIiAABAREAAiAgJAREAAiAgIABEBASAiIABEBASAiIAAEBEQACICAkBEQACICAgAEQEBICIgAEQEBICIgAAQERAAIgICQERAAIgICAARAQEgIiAARAQEgIiAABAREAAiAgJAREAAiAgIABEBASAiIABEBASAiIAAEBEQACICAkBEQACICAgAEQEBICIgAEQEBICIgAAQERAAIgICQERAAIgICAARAQEgIiAARAQEgIiAABAREAAiAgJAREAAiAgIABEBASAiIABEBASAiIAAEBEQACICAkBEQACICAgAgY8f/w+71y8dxM3IpAAAAABJRU5ErkJggg==;" parent="pkxwIuhRlSJscm1fMJWJ-212" vertex="1">
          <mxGeometry x="212.69870609981515" y="237" width="10.401744454713493" height="12.130314232902032" as="geometry" />
        </mxCell>
        <mxCell id="pkxwIuhRlSJscm1fMJWJ-181" value="Sign Up" style="rounded=1;whiteSpace=wrap;html=1;" parent="pkxwIuhRlSJscm1fMJWJ-212" vertex="1">
          <mxGeometry x="131.8253234750462" y="264.75000000000006" width="72.15341959334565" height="22.5" as="geometry" />
        </mxCell>
        <mxCell id="pkxwIuhRlSJscm1fMJWJ-182" value="" style="whiteSpace=wrap;html=1;aspect=fixed;" parent="pkxwIuhRlSJscm1fMJWJ-212" vertex="1">
          <mxGeometry x="240.05545286506467" y="93.75" width="103.10767097966729" height="103.10767097966729" as="geometry" />
        </mxCell>
        <mxCell id="pkxwIuhRlSJscm1fMJWJ-183" value="" style="endArrow=none;html=1;rounded=0;entryX=0;entryY=0;entryDx=0;entryDy=0;exitX=0.977;exitY=0.989;exitDx=0;exitDy=0;exitPerimeter=0;" parent="pkxwIuhRlSJscm1fMJWJ-212" source="pkxwIuhRlSJscm1fMJWJ-182" target="pkxwIuhRlSJscm1fMJWJ-182" edge="1">
          <mxGeometry width="50" height="50" relative="1" as="geometry">
            <mxPoint x="151.14602587800368" y="210" as="sourcePoint" />
            <mxPoint x="185.34195933456562" y="172.5" as="targetPoint" />
          </mxGeometry>
        </mxCell>
        <mxCell id="pkxwIuhRlSJscm1fMJWJ-184" value="" style="endArrow=none;html=1;rounded=0;entryX=1;entryY=0;entryDx=0;entryDy=0;exitX=0.028;exitY=0.989;exitDx=0;exitDy=0;exitPerimeter=0;" parent="pkxwIuhRlSJscm1fMJWJ-212" source="pkxwIuhRlSJscm1fMJWJ-182" target="pkxwIuhRlSJscm1fMJWJ-182" edge="1">
          <mxGeometry width="50" height="50" relative="1" as="geometry">
            <mxPoint x="151.14602587800368" y="210" as="sourcePoint" />
            <mxPoint x="185.34195933456562" y="172.5" as="targetPoint" />
          </mxGeometry>
        </mxCell>
        <mxCell id="pkxwIuhRlSJscm1fMJWJ-213" value="" style="endArrow=classic;html=1;rounded=0;exitX=1;exitY=0.5;exitDx=0;exitDy=0;" parent="1" source="pkxwIuhRlSJscm1fMJWJ-181" edge="1">
          <mxGeometry width="50" height="50" relative="1" as="geometry">
            <mxPoint x="-500" y="210" as="sourcePoint" />
            <mxPoint x="-290" y="130" as="targetPoint" />
            <Array as="points">
              <mxPoint x="-370" y="296" />
              <mxPoint x="-370" y="130" />
            </Array>
          </mxGeometry>
        </mxCell>
        <mxCell id="pkxwIuhRlSJscm1fMJWJ-214" value="" style="rounded=0;whiteSpace=wrap;html=1;" parent="1" vertex="1">
          <mxGeometry x="-290" y="100" width="200" height="90" as="geometry" />
        </mxCell>
        <mxCell id="pkxwIuhRlSJscm1fMJWJ-241" value="Ok" style="rounded=1;whiteSpace=wrap;html=1;" parent="1" vertex="1">
          <mxGeometry x="-226.07467652495382" y="158.75" width="72.15341959334565" height="22.5" as="geometry" />
        </mxCell>
        <mxCell id="pkxwIuhRlSJscm1fMJWJ-249" value="Sign up successfull" style="text;html=1;strokeColor=none;fillColor=none;align=center;verticalAlign=middle;whiteSpace=wrap;rounded=0;" parent="1" vertex="1">
          <mxGeometry x="-259" y="118" width="140" height="30" as="geometry" />
        </mxCell>
        <mxCell id="HWAsmWwuGCzAoxy0_08F-58" value="" style="rounded=0;whiteSpace=wrap;html=1;strokeWidth=3;container=0;" vertex="1" parent="1">
          <mxGeometry x="-460" y="480" width="370" height="45" as="geometry" />
        </mxCell>
        <mxCell id="HWAsmWwuGCzAoxy0_08F-54" value="Arrange AR field trip for students" style="text;html=1;strokeColor=none;fillColor=none;align=center;verticalAlign=middle;whiteSpace=wrap;rounded=0;fontSize=14;container=0;" vertex="1" parent="1">
          <mxGeometry x="-373.78999999999996" y="484.5" width="215.79" height="30" as="geometry" />
        </mxCell>
        <mxCell id="HWAsmWwuGCzAoxy0_08F-27" value="" style="rounded=0;whiteSpace=wrap;html=1;strokeWidth=3;container=0;" vertex="1" parent="1">
          <mxGeometry x="-460" y="520" width="370" height="240.75" as="geometry" />
        </mxCell>
        <mxCell id="HWAsmWwuGCzAoxy0_08F-60" value="" style="rounded=0;whiteSpace=wrap;html=1;strokeWidth=2;" vertex="1" parent="1">
          <mxGeometry x="-460" y="520" width="155" height="240" as="geometry" />
        </mxCell>
        <mxCell id="HWAsmWwuGCzAoxy0_08F-66" value="My Videos" style="rounded=1;whiteSpace=wrap;html=1;" vertex="1" parent="1">
          <mxGeometry x="-442.5" y="640" width="120" height="60" as="geometry" />
        </mxCell>
        <mxCell id="HWAsmWwuGCzAoxy0_08F-68" value="Upload Video" style="rounded=1;whiteSpace=wrap;html=1;" vertex="1" parent="1">
          <mxGeometry x="-442.5" y="550" width="120" height="60" as="geometry" />
        </mxCell>
        <mxCell id="HWAsmWwuGCzAoxy0_08F-70" value="" style="whiteSpace=wrap;html=1;aspect=fixed;" vertex="1" parent="1">
          <mxGeometry x="-268" y="556" width="140" height="140" as="geometry" />
        </mxCell>
        <mxCell id="HWAsmWwuGCzAoxy0_08F-71" value="" style="endArrow=none;html=1;rounded=0;exitX=0;exitY=0;exitDx=0;exitDy=0;entryX=1;entryY=1;entryDx=0;entryDy=0;" edge="1" parent="1" source="HWAsmWwuGCzAoxy0_08F-70" target="HWAsmWwuGCzAoxy0_08F-70">
          <mxGeometry width="50" height="50" relative="1" as="geometry">
            <mxPoint x="-165" y="610" as="sourcePoint" />
            <mxPoint x="-115" y="560" as="targetPoint" />
          </mxGeometry>
        </mxCell>
        <mxCell id="HWAsmWwuGCzAoxy0_08F-72" value="" style="endArrow=none;html=1;rounded=0;exitX=0;exitY=1;exitDx=0;exitDy=0;entryX=1;entryY=0;entryDx=0;entryDy=0;" edge="1" parent="1" source="HWAsmWwuGCzAoxy0_08F-70" target="HWAsmWwuGCzAoxy0_08F-70">
          <mxGeometry width="50" height="50" relative="1" as="geometry">
            <mxPoint x="-165" y="610" as="sourcePoint" />
            <mxPoint x="-115" y="560" as="targetPoint" />
          </mxGeometry>
        </mxCell>
        <mxCell id="HWAsmWwuGCzAoxy0_08F-73" value="" style="endArrow=classic;html=1;rounded=0;exitX=1;exitY=0.5;exitDx=0;exitDy=0;entryX=-0.017;entryY=0.197;entryDx=0;entryDy=0;entryPerimeter=0;" edge="1" parent="1" source="HWAsmWwuGCzAoxy0_08F-68" target="HWAsmWwuGCzAoxy0_08F-74">
          <mxGeometry width="50" height="50" relative="1" as="geometry">
            <mxPoint x="-165" y="610" as="sourcePoint" />
            <mxPoint x="25" y="540" as="targetPoint" />
            <Array as="points">
              <mxPoint x="-275" y="580" />
              <mxPoint x="-275" y="535" />
            </Array>
          </mxGeometry>
        </mxCell>
        <mxCell id="HWAsmWwuGCzAoxy0_08F-74" value="" style="whiteSpace=wrap;html=1;aspect=fixed;" vertex="1" parent="1">
          <mxGeometry x="-15" y="500" width="180" height="180" as="geometry" />
        </mxCell>
        <mxCell id="HWAsmWwuGCzAoxy0_08F-75" value="File Explorer" style="rounded=0;whiteSpace=wrap;html=1;align=left;" vertex="1" parent="1">
          <mxGeometry x="-15" y="500" width="180" height="20" as="geometry" />
        </mxCell>
        <mxCell id="HWAsmWwuGCzAoxy0_08F-83" value="" style="shape=cross;whiteSpace=wrap;html=1;rotation=-45;" vertex="1" parent="1">
          <mxGeometry x="145" y="504" width="13" height="13" as="geometry" />
        </mxCell>
        <mxCell id="HWAsmWwuGCzAoxy0_08F-88" value="" style="whiteSpace=wrap;html=1;shape=mxgraph.basic.document" vertex="1" parent="1">
          <mxGeometry x="64" y="534" width="30" height="40" as="geometry" />
        </mxCell>
        <mxCell id="HWAsmWwuGCzAoxy0_08F-95" value="" style="group" vertex="1" connectable="0" parent="1">
          <mxGeometry x="-5" y="529" width="50" height="50" as="geometry" />
        </mxCell>
        <mxCell id="HWAsmWwuGCzAoxy0_08F-94" value="" style="whiteSpace=wrap;html=1;aspect=fixed;dashed=1;dashPattern=8 8;" vertex="1" parent="HWAsmWwuGCzAoxy0_08F-95">
          <mxGeometry width="50" height="50" as="geometry" />
        </mxCell>
        <mxCell id="HWAsmWwuGCzAoxy0_08F-87" value="" style="whiteSpace=wrap;html=1;shape=mxgraph.basic.document" vertex="1" parent="HWAsmWwuGCzAoxy0_08F-95">
          <mxGeometry x="10" y="5" width="30" height="40" as="geometry" />
        </mxCell>
        <mxCell id="HWAsmWwuGCzAoxy0_08F-99" value="" style="group" vertex="1" connectable="0" parent="1">
          <mxGeometry x="9" y="547" width="21" height="20" as="geometry" />
        </mxCell>
        <mxCell id="HWAsmWwuGCzAoxy0_08F-101" value="" style="group" vertex="1" connectable="0" parent="HWAsmWwuGCzAoxy0_08F-99">
          <mxGeometry width="20" height="20" as="geometry" />
        </mxCell>
        <mxCell id="HWAsmWwuGCzAoxy0_08F-96" value="" style="ellipse;whiteSpace=wrap;html=1;aspect=fixed;" vertex="1" parent="HWAsmWwuGCzAoxy0_08F-101">
          <mxGeometry width="20" height="20" as="geometry" />
        </mxCell>
        <mxCell id="HWAsmWwuGCzAoxy0_08F-97" value="" style="triangle;whiteSpace=wrap;html=1;" vertex="1" parent="HWAsmWwuGCzAoxy0_08F-101">
          <mxGeometry x="8" y="3.333333333333333" width="6.666666666666666" height="13.333333333333332" as="geometry" />
        </mxCell>
        <mxCell id="HWAsmWwuGCzAoxy0_08F-108" value="" style="group" vertex="1" connectable="0" parent="1">
          <mxGeometry x="68.5" y="547" width="21" height="20" as="geometry" />
        </mxCell>
        <mxCell id="HWAsmWwuGCzAoxy0_08F-109" value="" style="group" vertex="1" connectable="0" parent="HWAsmWwuGCzAoxy0_08F-108">
          <mxGeometry width="20" height="20" as="geometry" />
        </mxCell>
        <mxCell id="HWAsmWwuGCzAoxy0_08F-110" value="" style="ellipse;whiteSpace=wrap;html=1;aspect=fixed;" vertex="1" parent="HWAsmWwuGCzAoxy0_08F-109">
          <mxGeometry width="20" height="20" as="geometry" />
        </mxCell>
        <mxCell id="HWAsmWwuGCzAoxy0_08F-111" value="" style="triangle;whiteSpace=wrap;html=1;" vertex="1" parent="HWAsmWwuGCzAoxy0_08F-109">
          <mxGeometry x="8" y="3.333333333333333" width="6.666666666666666" height="13.333333333333332" as="geometry" />
        </mxCell>
        <mxCell id="HWAsmWwuGCzAoxy0_08F-116" value="" style="group" vertex="1" connectable="0" parent="1">
          <mxGeometry x="123" y="534" width="30" height="40" as="geometry" />
        </mxCell>
        <mxCell id="HWAsmWwuGCzAoxy0_08F-91" value="" style="whiteSpace=wrap;html=1;shape=mxgraph.basic.document" vertex="1" parent="HWAsmWwuGCzAoxy0_08F-116">
          <mxGeometry width="30" height="40" as="geometry" />
        </mxCell>
        <mxCell id="HWAsmWwuGCzAoxy0_08F-112" value="" style="group" vertex="1" connectable="0" parent="HWAsmWwuGCzAoxy0_08F-116">
          <mxGeometry x="4.5" y="13" width="21" height="20" as="geometry" />
        </mxCell>
        <mxCell id="HWAsmWwuGCzAoxy0_08F-113" value="" style="group" vertex="1" connectable="0" parent="HWAsmWwuGCzAoxy0_08F-112">
          <mxGeometry width="20" height="20" as="geometry" />
        </mxCell>
        <mxCell id="HWAsmWwuGCzAoxy0_08F-114" value="" style="ellipse;whiteSpace=wrap;html=1;aspect=fixed;" vertex="1" parent="HWAsmWwuGCzAoxy0_08F-113">
          <mxGeometry width="20" height="20" as="geometry" />
        </mxCell>
        <mxCell id="HWAsmWwuGCzAoxy0_08F-115" value="" style="triangle;whiteSpace=wrap;html=1;" vertex="1" parent="HWAsmWwuGCzAoxy0_08F-113">
          <mxGeometry x="8" y="3.333333333333333" width="6.666666666666666" height="13.333333333333332" as="geometry" />
        </mxCell>
        <mxCell id="HWAsmWwuGCzAoxy0_08F-117" value="" style="group" vertex="1" connectable="0" parent="1">
          <mxGeometry x="5" y="590" width="30" height="40" as="geometry" />
        </mxCell>
        <mxCell id="HWAsmWwuGCzAoxy0_08F-118" value="" style="whiteSpace=wrap;html=1;shape=mxgraph.basic.document" vertex="1" parent="HWAsmWwuGCzAoxy0_08F-117">
          <mxGeometry width="30" height="40" as="geometry" />
        </mxCell>
        <mxCell id="HWAsmWwuGCzAoxy0_08F-119" value="" style="group" vertex="1" connectable="0" parent="HWAsmWwuGCzAoxy0_08F-117">
          <mxGeometry x="4.5" y="13" width="21" height="20" as="geometry" />
        </mxCell>
        <mxCell id="HWAsmWwuGCzAoxy0_08F-120" value="" style="group" vertex="1" connectable="0" parent="HWAsmWwuGCzAoxy0_08F-119">
          <mxGeometry width="20" height="20" as="geometry" />
        </mxCell>
        <mxCell id="HWAsmWwuGCzAoxy0_08F-121" value="" style="ellipse;whiteSpace=wrap;html=1;aspect=fixed;" vertex="1" parent="HWAsmWwuGCzAoxy0_08F-120">
          <mxGeometry width="20" height="20" as="geometry" />
        </mxCell>
        <mxCell id="HWAsmWwuGCzAoxy0_08F-122" value="" style="triangle;whiteSpace=wrap;html=1;" vertex="1" parent="HWAsmWwuGCzAoxy0_08F-120">
          <mxGeometry x="8" y="3.333333333333333" width="6.666666666666666" height="13.333333333333332" as="geometry" />
        </mxCell>
        <mxCell id="HWAsmWwuGCzAoxy0_08F-123" value="" style="group" vertex="1" connectable="0" parent="1">
          <mxGeometry x="64" y="590" width="30" height="40" as="geometry" />
        </mxCell>
        <mxCell id="HWAsmWwuGCzAoxy0_08F-124" value="" style="whiteSpace=wrap;html=1;shape=mxgraph.basic.document" vertex="1" parent="HWAsmWwuGCzAoxy0_08F-123">
          <mxGeometry width="30" height="40" as="geometry" />
        </mxCell>
        <mxCell id="HWAsmWwuGCzAoxy0_08F-125" value="" style="group" vertex="1" connectable="0" parent="HWAsmWwuGCzAoxy0_08F-123">
          <mxGeometry x="4.5" y="13" width="21" height="20" as="geometry" />
        </mxCell>
        <mxCell id="HWAsmWwuGCzAoxy0_08F-126" value="" style="group" vertex="1" connectable="0" parent="HWAsmWwuGCzAoxy0_08F-125">
          <mxGeometry width="20" height="20" as="geometry" />
        </mxCell>
        <mxCell id="HWAsmWwuGCzAoxy0_08F-127" value="" style="ellipse;whiteSpace=wrap;html=1;aspect=fixed;" vertex="1" parent="HWAsmWwuGCzAoxy0_08F-126">
          <mxGeometry width="20" height="20" as="geometry" />
        </mxCell>
        <mxCell id="HWAsmWwuGCzAoxy0_08F-128" value="" style="triangle;whiteSpace=wrap;html=1;" vertex="1" parent="HWAsmWwuGCzAoxy0_08F-126">
          <mxGeometry x="8" y="3.333333333333333" width="6.666666666666666" height="13.333333333333332" as="geometry" />
        </mxCell>
        <mxCell id="HWAsmWwuGCzAoxy0_08F-129" value="" style="group" vertex="1" connectable="0" parent="1">
          <mxGeometry x="124" y="590" width="30" height="40" as="geometry" />
        </mxCell>
        <mxCell id="HWAsmWwuGCzAoxy0_08F-130" value="" style="whiteSpace=wrap;html=1;shape=mxgraph.basic.document" vertex="1" parent="HWAsmWwuGCzAoxy0_08F-129">
          <mxGeometry width="30" height="40" as="geometry" />
        </mxCell>
        <mxCell id="HWAsmWwuGCzAoxy0_08F-131" value="" style="group" vertex="1" connectable="0" parent="HWAsmWwuGCzAoxy0_08F-129">
          <mxGeometry x="4.5" y="13" width="21" height="20" as="geometry" />
        </mxCell>
        <mxCell id="HWAsmWwuGCzAoxy0_08F-132" value="" style="group" vertex="1" connectable="0" parent="HWAsmWwuGCzAoxy0_08F-131">
          <mxGeometry width="20" height="20" as="geometry" />
        </mxCell>
        <mxCell id="HWAsmWwuGCzAoxy0_08F-133" value="" style="ellipse;whiteSpace=wrap;html=1;aspect=fixed;" vertex="1" parent="HWAsmWwuGCzAoxy0_08F-132">
          <mxGeometry width="20" height="20" as="geometry" />
        </mxCell>
        <mxCell id="HWAsmWwuGCzAoxy0_08F-134" value="" style="triangle;whiteSpace=wrap;html=1;" vertex="1" parent="HWAsmWwuGCzAoxy0_08F-132">
          <mxGeometry x="8" y="3.333333333333333" width="6.666666666666666" height="13.333333333333332" as="geometry" />
        </mxCell>
        <mxCell id="HWAsmWwuGCzAoxy0_08F-135" value="&lt;font style=&quot;font-size: 9px;&quot;&gt;File Name&lt;/font&gt;" style="rounded=0;whiteSpace=wrap;html=1;align=left;" vertex="1" parent="1">
          <mxGeometry x="-14.069999999999993" y="660" width="119.07" height="20" as="geometry" />
        </mxCell>
        <mxCell id="HWAsmWwuGCzAoxy0_08F-136" value="&lt;font style=&quot;font-size: 9px;&quot;&gt;Upload&lt;/font&gt;" style="rounded=1;whiteSpace=wrap;html=1;" vertex="1" parent="1">
          <mxGeometry x="113" y="662" width="45" height="15" as="geometry" />
        </mxCell>
        <mxCell id="HWAsmWwuGCzAoxy0_08F-137" value="" style="endArrow=classic;html=1;rounded=0;exitX=1;exitY=0.5;exitDx=0;exitDy=0;" edge="1" parent="1" source="HWAsmWwuGCzAoxy0_08F-136">
          <mxGeometry width="50" height="50" relative="1" as="geometry">
            <mxPoint x="55" y="630" as="sourcePoint" />
            <mxPoint x="245" y="590" as="targetPoint" />
            <Array as="points">
              <mxPoint x="225" y="670" />
              <mxPoint x="225" y="590" />
            </Array>
          </mxGeometry>
        </mxCell>
        <mxCell id="HWAsmWwuGCzAoxy0_08F-144" value="" style="rounded=0;whiteSpace=wrap;html=1;" vertex="1" parent="1">
          <mxGeometry x="245" y="540" width="200" height="90" as="geometry" />
        </mxCell>
        <mxCell id="HWAsmWwuGCzAoxy0_08F-145" value="Ok" style="rounded=1;whiteSpace=wrap;html=1;" vertex="1" parent="1">
          <mxGeometry x="308.9253234750462" y="598.75" width="72.15341959334565" height="22.5" as="geometry" />
        </mxCell>
        <mxCell id="HWAsmWwuGCzAoxy0_08F-146" value="Video Uploaded!&amp;nbsp;" style="text;html=1;strokeColor=none;fillColor=none;align=center;verticalAlign=middle;whiteSpace=wrap;rounded=0;" vertex="1" parent="1">
          <mxGeometry x="276" y="558" width="140" height="30" as="geometry" />
        </mxCell>
        <mxCell id="HWAsmWwuGCzAoxy0_08F-147" value="" style="endArrow=classic;html=1;rounded=0;exitX=0.439;exitY=0.984;exitDx=0;exitDy=0;exitPerimeter=0;entryX=-0.004;entryY=0.083;entryDx=0;entryDy=0;entryPerimeter=0;" edge="1" parent="1" source="HWAsmWwuGCzAoxy0_08F-66" target="HWAsmWwuGCzAoxy0_08F-148">
          <mxGeometry width="50" height="50" relative="1" as="geometry">
            <mxPoint x="-105" y="730" as="sourcePoint" />
            <mxPoint x="-45" y="740" as="targetPoint" />
            <Array as="points">
              <mxPoint x="-390" y="740" />
            </Array>
          </mxGeometry>
        </mxCell>
        <mxCell id="HWAsmWwuGCzAoxy0_08F-148" value="" style="rounded=0;whiteSpace=wrap;html=1;strokeWidth=3;container=0;" vertex="1" parent="1">
          <mxGeometry x="-33.5" y="720" width="370" height="240.75" as="geometry" />
        </mxCell>
        <mxCell id="HWAsmWwuGCzAoxy0_08F-173" value="" style="group" vertex="1" connectable="0" parent="1">
          <mxGeometry x="85" y="770" width="40" height="50" as="geometry" />
        </mxCell>
        <mxCell id="HWAsmWwuGCzAoxy0_08F-174" value="" style="whiteSpace=wrap;html=1;shape=mxgraph.basic.document" vertex="1" parent="HWAsmWwuGCzAoxy0_08F-173">
          <mxGeometry width="40" height="50" as="geometry" />
        </mxCell>
        <mxCell id="HWAsmWwuGCzAoxy0_08F-175" value="" style="group" vertex="1" connectable="0" parent="HWAsmWwuGCzAoxy0_08F-173">
          <mxGeometry x="6" y="16.25" width="28" height="25" as="geometry" />
        </mxCell>
        <mxCell id="HWAsmWwuGCzAoxy0_08F-176" value="" style="group" vertex="1" connectable="0" parent="HWAsmWwuGCzAoxy0_08F-175">
          <mxGeometry width="26.66666666666667" height="25" as="geometry" />
        </mxCell>
        <mxCell id="HWAsmWwuGCzAoxy0_08F-177" value="" style="ellipse;whiteSpace=wrap;html=1;aspect=fixed;" vertex="1" parent="HWAsmWwuGCzAoxy0_08F-176">
          <mxGeometry width="24" height="24" as="geometry" />
        </mxCell>
        <mxCell id="HWAsmWwuGCzAoxy0_08F-178" value="" style="triangle;whiteSpace=wrap;html=1;" vertex="1" parent="HWAsmWwuGCzAoxy0_08F-176">
          <mxGeometry x="10.666666666666668" y="4.166666666666667" width="8.88888888888889" height="16.666666666666668" as="geometry" />
        </mxCell>
        <mxCell id="HWAsmWwuGCzAoxy0_08F-179" value="" style="group" vertex="1" connectable="0" parent="1">
          <mxGeometry x="85" y="850" width="40" height="50" as="geometry" />
        </mxCell>
        <mxCell id="HWAsmWwuGCzAoxy0_08F-180" value="" style="whiteSpace=wrap;html=1;shape=mxgraph.basic.document" vertex="1" parent="HWAsmWwuGCzAoxy0_08F-179">
          <mxGeometry width="40" height="50" as="geometry" />
        </mxCell>
        <mxCell id="HWAsmWwuGCzAoxy0_08F-181" value="" style="group" vertex="1" connectable="0" parent="HWAsmWwuGCzAoxy0_08F-179">
          <mxGeometry x="6" y="16.25" width="28" height="25" as="geometry" />
        </mxCell>
        <mxCell id="HWAsmWwuGCzAoxy0_08F-182" value="" style="group" vertex="1" connectable="0" parent="HWAsmWwuGCzAoxy0_08F-181">
          <mxGeometry width="26.66666666666667" height="25" as="geometry" />
        </mxCell>
        <mxCell id="HWAsmWwuGCzAoxy0_08F-183" value="" style="ellipse;whiteSpace=wrap;html=1;aspect=fixed;" vertex="1" parent="HWAsmWwuGCzAoxy0_08F-182">
          <mxGeometry width="24" height="24" as="geometry" />
        </mxCell>
        <mxCell id="HWAsmWwuGCzAoxy0_08F-184" value="" style="triangle;whiteSpace=wrap;html=1;" vertex="1" parent="HWAsmWwuGCzAoxy0_08F-182">
          <mxGeometry x="10.666666666666668" y="4.166666666666667" width="8.88888888888889" height="16.666666666666668" as="geometry" />
        </mxCell>
        <mxCell id="HWAsmWwuGCzAoxy0_08F-185" value="" style="group" vertex="1" connectable="0" parent="1">
          <mxGeometry x="5" y="850" width="40" height="50" as="geometry" />
        </mxCell>
        <mxCell id="HWAsmWwuGCzAoxy0_08F-186" value="" style="whiteSpace=wrap;html=1;shape=mxgraph.basic.document" vertex="1" parent="HWAsmWwuGCzAoxy0_08F-185">
          <mxGeometry width="40" height="50" as="geometry" />
        </mxCell>
        <mxCell id="HWAsmWwuGCzAoxy0_08F-187" value="" style="group" vertex="1" connectable="0" parent="HWAsmWwuGCzAoxy0_08F-185">
          <mxGeometry x="6" y="16.25" width="28" height="25" as="geometry" />
        </mxCell>
        <mxCell id="HWAsmWwuGCzAoxy0_08F-188" value="" style="group" vertex="1" connectable="0" parent="HWAsmWwuGCzAoxy0_08F-187">
          <mxGeometry width="26.66666666666667" height="25" as="geometry" />
        </mxCell>
        <mxCell id="HWAsmWwuGCzAoxy0_08F-189" value="" style="ellipse;whiteSpace=wrap;html=1;aspect=fixed;" vertex="1" parent="HWAsmWwuGCzAoxy0_08F-188">
          <mxGeometry width="24" height="24" as="geometry" />
        </mxCell>
        <mxCell id="HWAsmWwuGCzAoxy0_08F-190" value="" style="triangle;whiteSpace=wrap;html=1;" vertex="1" parent="HWAsmWwuGCzAoxy0_08F-188">
          <mxGeometry x="10.666666666666668" y="4.166666666666667" width="8.88888888888889" height="16.666666666666668" as="geometry" />
        </mxCell>
        <mxCell id="HWAsmWwuGCzAoxy0_08F-191" value="" style="whiteSpace=wrap;html=1;aspect=fixed;" vertex="1" parent="1">
          <mxGeometry x="168.93" y="770" width="140" height="140" as="geometry" />
        </mxCell>
        <mxCell id="HWAsmWwuGCzAoxy0_08F-192" value="" style="endArrow=none;html=1;rounded=0;exitX=0;exitY=1;exitDx=0;exitDy=0;entryX=1;entryY=0;entryDx=0;entryDy=0;" edge="1" source="HWAsmWwuGCzAoxy0_08F-191" target="HWAsmWwuGCzAoxy0_08F-191" parent="1">
          <mxGeometry width="50" height="50" relative="1" as="geometry">
            <mxPoint x="271.93" y="824" as="sourcePoint" />
            <mxPoint x="321.93" y="774" as="targetPoint" />
          </mxGeometry>
        </mxCell>
        <mxCell id="HWAsmWwuGCzAoxy0_08F-193" value="" style="endArrow=none;html=1;rounded=0;exitX=0;exitY=0;exitDx=0;exitDy=0;entryX=1;entryY=1;entryDx=0;entryDy=0;" edge="1" source="HWAsmWwuGCzAoxy0_08F-191" target="HWAsmWwuGCzAoxy0_08F-191" parent="1">
          <mxGeometry width="50" height="50" relative="1" as="geometry">
            <mxPoint x="271.93" y="824" as="sourcePoint" />
            <mxPoint x="321.93" y="774" as="targetPoint" />
          </mxGeometry>
        </mxCell>
        <mxCell id="HWAsmWwuGCzAoxy0_08F-194" value="Search videos" style="rounded=0;whiteSpace=wrap;html=1;align=left;" vertex="1" parent="1">
          <mxGeometry x="-33.5" y="720" width="368.5" height="30" as="geometry" />
        </mxCell>
        <mxCell id="HWAsmWwuGCzAoxy0_08F-200" value="" style="group" vertex="1" connectable="0" parent="1">
          <mxGeometry x="306" y="720" width="30" height="30" as="geometry" />
        </mxCell>
        <mxCell id="HWAsmWwuGCzAoxy0_08F-199" value="" style="whiteSpace=wrap;html=1;aspect=fixed;" vertex="1" parent="HWAsmWwuGCzAoxy0_08F-200">
          <mxGeometry width="30" height="30" as="geometry" />
        </mxCell>
        <mxCell id="HWAsmWwuGCzAoxy0_08F-198" value="" style="html=1;verticalLabelPosition=bottom;align=center;labelBackgroundColor=#ffffff;verticalAlign=top;strokeWidth=2;strokeColor=#242424;shadow=0;dashed=0;shape=mxgraph.ios7.icons.looking_glass;" vertex="1" parent="HWAsmWwuGCzAoxy0_08F-200">
          <mxGeometry x="7.5" y="7.5" width="15" height="15" as="geometry" />
        </mxCell>
        <mxCell id="HWAsmWwuGCzAoxy0_08F-202" value="" style="whiteSpace=wrap;html=1;aspect=fixed;" vertex="1" parent="1">
          <mxGeometry x="-7.5" y="762.75" width="65" height="65" as="geometry" />
        </mxCell>
        <mxCell id="HWAsmWwuGCzAoxy0_08F-149" value="" style="group" vertex="1" connectable="0" parent="1">
          <mxGeometry x="5" y="770.25" width="40" height="50" as="geometry" />
        </mxCell>
        <mxCell id="HWAsmWwuGCzAoxy0_08F-150" value="" style="whiteSpace=wrap;html=1;shape=mxgraph.basic.document" vertex="1" parent="HWAsmWwuGCzAoxy0_08F-149">
          <mxGeometry width="40" height="50" as="geometry" />
        </mxCell>
        <mxCell id="HWAsmWwuGCzAoxy0_08F-151" value="" style="group" vertex="1" connectable="0" parent="HWAsmWwuGCzAoxy0_08F-149">
          <mxGeometry x="6" y="16.25" width="28" height="25" as="geometry" />
        </mxCell>
        <mxCell id="HWAsmWwuGCzAoxy0_08F-152" value="" style="group" vertex="1" connectable="0" parent="HWAsmWwuGCzAoxy0_08F-151">
          <mxGeometry width="26.66666666666667" height="25" as="geometry" />
        </mxCell>
        <mxCell id="HWAsmWwuGCzAoxy0_08F-153" value="" style="ellipse;whiteSpace=wrap;html=1;aspect=fixed;" vertex="1" parent="HWAsmWwuGCzAoxy0_08F-152">
          <mxGeometry width="24" height="24" as="geometry" />
        </mxCell>
        <mxCell id="HWAsmWwuGCzAoxy0_08F-154" value="" style="triangle;whiteSpace=wrap;html=1;" vertex="1" parent="HWAsmWwuGCzAoxy0_08F-152">
          <mxGeometry x="10.666666666666668" y="4.166666666666667" width="8.88888888888889" height="16.666666666666668" as="geometry" />
        </mxCell>
        <mxCell id="HWAsmWwuGCzAoxy0_08F-211" value="Delete" style="rounded=1;whiteSpace=wrap;html=1;" vertex="1" parent="1">
          <mxGeometry x="111.99532347504618" y="927" width="72.15341959334565" height="22.5" as="geometry" />
        </mxCell>
        <mxCell id="HWAsmWwuGCzAoxy0_08F-212" value="" style="endArrow=classic;html=1;rounded=0;exitX=1;exitY=0.5;exitDx=0;exitDy=0;" edge="1" parent="1" source="HWAsmWwuGCzAoxy0_08F-211">
          <mxGeometry width="50" height="50" relative="1" as="geometry">
            <mxPoint x="-15" y="820" as="sourcePoint" />
            <mxPoint x="375" y="860" as="targetPoint" />
            <Array as="points">
              <mxPoint x="345" y="938" />
              <mxPoint x="345" y="860" />
            </Array>
          </mxGeometry>
        </mxCell>
        <mxCell id="HWAsmWwuGCzAoxy0_08F-213" value="" style="rounded=0;whiteSpace=wrap;html=1;" vertex="1" parent="1">
          <mxGeometry x="375" y="820" width="200" height="90" as="geometry" />
        </mxCell>
        <mxCell id="HWAsmWwuGCzAoxy0_08F-215" value="Ok" style="rounded=1;whiteSpace=wrap;html=1;" vertex="1" parent="1">
          <mxGeometry x="438.9253234750462" y="877.5" width="72.15341959334565" height="22.5" as="geometry" />
        </mxCell>
        <mxCell id="HWAsmWwuGCzAoxy0_08F-216" value="Video Deleted!" style="text;html=1;strokeColor=none;fillColor=none;align=center;verticalAlign=middle;whiteSpace=wrap;rounded=0;" vertex="1" parent="1">
          <mxGeometry x="424.93" y="835" width="96.07" height="30" as="geometry" />
        </mxCell>
        <mxCell id="HWAsmWwuGCzAoxy0_08F-220" value="&lt;font style=&quot;font-size: 28px;&quot;&gt;Teacher&lt;/font&gt;" style="text;html=1;strokeColor=none;fillColor=none;align=center;verticalAlign=middle;whiteSpace=wrap;rounded=0;fontStyle=1" vertex="1" parent="1">
          <mxGeometry x="-459" y="402" width="180" height="50" as="geometry" />
        </mxCell>
      </root>
    </mxGraphModel>
  </diagram>
</mxfile>
